# File produced by Open Asset Import Library (http://www.assimp.sf.net)
# (assimp v5.0.1588609223)

mtllib result.mtl

# 666 vertex positions
v  0.006348019 -0.0071722353 -0.00056072831
v  0.006090878 0.0024792999 -0.00070918869
v  0.0073192287 0.0024792999 -0.0014183774
v  0.0073192287 -0.0071722353 -0.0011214566
v  0.006348019 -0.0071722353 0.00056072831
v  0.006090878 0.0024792999 0.00070918869
v  0.0073192287 -0.0071722353 0.0011214566
v  0.0073192287 0.0024792999 0.0014183774
v  0.0082904389 -0.0071722353 0.00056072831
v  0.0085475799 0.0024792999 0.00070918869
v  0.0082904389 -0.0071722353 -0.00056072831
v  0.0085475799 0.0024792999 -0.00070918869
v  0.0060335277 0.0073812981 -0.00074229989
v  0.0060201907 0.00852127 -0.00075000001
v  0.0073192287 0.00852127 -0.0015
v  0.0073192287 0.0073812981 -0.0014845998
v  0.0060300119 0.0076817907 -0.0003509644
v  0.0060237064 0.0082207769 -0.00035460506
v  0.0073192287 0.0073812981 0.0014845998
v  0.0073192287 0.00852127 0.0015
v  0.0060201907 0.00852127 0.00075000001
v  0.0060335277 0.0073812981 0.00074229989
v  0.0086049298 0.0073812981 0.00074229989
v  0.0086182673 0.00852127 0.00075000001
v  0.0086049298 0.0073812981 -0.00074229989
v  0.0086182673 0.00852127 -0.00075000001
v  0.0073192287 0.0030494048 -0.0014260791
v  0.0085542491 0.0030494048 -0.00071303954
v  0.0085542491 0.0030494048 0.00071303954
v  0.0073192287 0.0030494048 0.0014260791
v  0.0060842079 0.0030494048 0.00071303954
v  0.0060842079 0.0030494048 -0.00071303954
v  0.0060237064 0.0082207769 0.00035460506
v  0.0060300119 0.0076817907 0.0003509644
v  0.0073192287 0.0099999998 -0.0012700259
v  0.008419103 0.0099999998 -0.00063501293
v  0.008419103 0.0099999998 0.00063501293
v  0.0073192287 0.0099999998 0.0012700259
v  0.006219354 0.0099999998 0.00063501293
v  0.0079404227 0.010384909 -0.0003586465
v  0.0079404227 0.010384909 0.00035864656
v  0.006219354 0.0099999998 -0.00063501293
v  0.0073192287 -0.0099999998 -0.00024092756
v  0.007527878 -0.0099999998 -0.00012046378
v  0.007527878 -0.0099999998 0.00012046384
v  0.0073192287 -0.0099999998 0.00024092768
v  0.0071105794 -0.0099999998 0.00012046384
v  0.0071105794 -0.0099999998 -0.00012046378
v  0.0073192287 0.0025156373 -0.0015332917
v  0.0086470982 0.0025156373 -0.00076664583
v  0.0059841489 0.0030130674 0.00077080866
v  0.0073192287 0.0030130674 0.0015416174
v  0.0059913592 0.0025156373 0.00076664583
v  0.0059913592 0.0025156373 -0.00076664583
v  0.0086543085 0.0030130674 0.00077080866
v  0.0086470982 0.0025156373 0.00076664583
v  0.0073192287 0.0030130674 -0.0015416174
v  0.0059841489 0.0030130674 -0.00077080878
v  0.0086543085 0.0030130674 -0.00077080878
v  0.0073192287 0.0025156373 0.0015332917
v  0.0066980347 0.010384909 0.00035864656
v  0.0066980347 0.010384909 -0.0003586465
v  0.0073192287 0.010384909 -0.00071729306
v  0.0073192287 0.010384909 0.00071729306
v  0.0056089908 0.0082159247 -0.00035460506
v  0.0056152968 0.007676939 -0.0003509644
v  0.0051313611 0.007688689 -0.00029070445
v  0.0051261382 0.0081351316 -0.00029371999
v  0.0051313611 0.007688689 0.00029070445
v  0.0051261382 0.0081351316 0.00029371999
v  0.0056089908 0.0082159247 0.00035460506
v  0.0056152968 0.007676939 0.0003509644
v  0.0057927668 0.0054545184 0.00029882899
v  0.0057927668 0.0054545184 -0.00029882899
v  0.0053807194 0.0054645236 0.0002475206
v  0.0056902184 0.0031473446 0.00017309985
v  0.0059783775 0.003140348 0.0002089816
v  0.0053807194 0.0054645236 -0.0002475206
v  0.0059783775 0.003140348 -0.0002089816
v  0.0056902184 0.0031473446 -0.00017309985
v  0.0042346269 -0.00072642887 0.0013126575
v  0.0043006716 -0.00056302885 0.0013126576
v  0.0039430587 -0.00051353365 0.0015154746
v  0.0031022634 0.0006190564 0.0013147843
v  0.0027936338 0.00074380042 0.0013147843
v  0.0029076864 0.00058181625 0.0015147857
v  0.0039430587 -0.00051353348 -0.0015154748
v  0.0043006712 -0.00056302879 -0.0013126576
v  0.0042346269 -0.00072642899 -0.0013126574
v  0.0029076866 0.0005818163 -0.0015147859
v  0.0027936338 0.00074380054 -0.0013147843
v  0.0031022634 0.00061905634 -0.0013147842
v  0.0043628844 -0.00037898094 -0.00095708965
v  0.0041251676 -0.00014929329 -0.00095708959
v  0.0041251676 -0.00014929329 0.00095708959
v  0.0043628844 -0.00037898106 0.00095708959
v  -0.0013343671 -0.00014929351 -0.0017098121
v  -0.0013343671 -0.0001492934 -0.0017098121
v  0.0030418914 -0.00014929331 -0.0017098121
v  0.0030418914 -0.00014929342 -0.0017098122
v  0.0038437843 0.00012258595 -0.00095708959
v  0.0035784261 0.00037898135 -0.00095708965
v  0.0035784261 0.00037898147 0.00095708965
v  0.0038437843 0.00012258595 0.00095708959
v  0.0027605081 0.00012258592 0.0017098121
v  0.0027328667 0.0001492935 0.0017098121
v  -0.0013343645 0.00014929345 0.0017098121
v  -0.0013343645 0.00012258578 0.0017098121
v  0.0022843848 0.00090201601 -0.00095708977
v  -0.0013343771 0.00090201589 -0.00095708959
v  -0.001334368 0.00090201589 0.00095708959
v  0.0022843848 0.00090201601 0.00095708983
v  -0.0013343706 0.00012258586 -0.0017098121
v  -0.0013343709 0.0001492934 -0.0017098121
v  0.0027328669 0.00014929351 -0.001709812
v  0.0027605081 0.00012258593 -0.0017098121
v  -0.001334363 -0.00090201601 0.00095708983
v  -0.0013343589 -0.00090201601 -0.00095708983
v  0.0041514807 -0.00090201589 -0.00095708965
v  0.0041514807 -0.00090201589 0.00095708965
v  0.0030418914 -0.00014929345 0.0017098121
v  0.0030418914 -0.00014929334 0.0017098121
v  -0.0013343645 -0.0001492935 0.0017098121
v  -0.0013343645 -0.00014929351 0.0017098121
v  0.0044472571 -0.0008184727 0.00095708959
v  0.003798442 -0.00079119083 0.0013252534
v  0.0045175413 -0.00064458372 0.00095708959
v  0.0040319907 -0.00021336869 0.0013252536
v  0.0035516003 -0.00012984095 0.0015989873
v  0.0033949306 -0.00051745726 0.001598987
v  0.00320384 0.00063430006 0.00095708971
v  0.003398054 0.00039831092 0.0013261621
v  0.002731177 0.00082534424 0.00095708977
v  0.0024275302 0.00079058396 0.001326162
v  0.0025897212 0.00051836588 0.00159838
v  0.003092262 0.00031524547 0.00159838
v  0.0035516003 -0.00012984098 -0.0015989873
v  0.0033949306 -0.00051745708 -0.0015989871
v  0.0040319902 -0.00021336871 -0.0013252534
v  0.0045175413 -0.0006445836 -0.00095708959
v  0.0044472576 -0.0008184727 -0.00095708971
v  0.003798442 -0.00079119101 -0.0013252534
v  0.0025897215 0.00051836588 -0.00159838
v  0.003092262 0.00031524527 -0.00159838
v  0.0024275302 0.00079058402 -0.0013261621
v  0.0027311773 0.00082534435 -0.00095708983
v  0.00320384 0.00063430012 -0.00095708971
v  0.0033980538 0.00039831069 -0.0013261619
v  -0.0013343751 0.00080117019 -0.0013334509
v  -0.0013343729 0.00052565464 -0.0016089665
v  0.0038775047 -5.0225164e-05 -0.0013334509
v  0.0034809983 -5.0225121e-05 -0.0016089665
v  0.0034809983 -5.0225135e-05 0.0016089665
v  0.0038775047 -5.0225142e-05 0.0013334509
v  -0.0013343636 -0.0008011703 0.0013334509
v  -0.0013343641 -0.00052565476 0.0016089664
v  -0.0013343669 0.00080117013 0.0013334509
v  -0.0013343657 0.00052565464 0.0016089665
v  -0.0013343616 -0.0008011703 -0.0013334509
v  -0.0013343646 -0.00052565476 -0.0016089664
v  0.0035961214 0.00022165413 -0.0013334509
v  0.0031996151 0.00022165416 -0.0016089666
v  0.0031996151 0.00022165416 0.0016089666
v  0.0035961214 0.00022165413 0.0013334509
v  -0.0036781821 -0.0006190564 0.0013147844
v  -0.0033695528 -0.00074380042 0.0013147844
v  -0.0034836053 -0.00058181625 0.0015147859
v  -0.0045189774 0.00051353354 0.0015154749
v  -0.0048105451 0.00072642887 0.0013126575
v  -0.0048765899 0.00056302879 0.0013126577
v  -0.0033695525 -0.00074380042 -0.0013147843
v  -0.0036781819 -0.00061905629 -0.0013147842
v  -0.0034836056 -0.0005818163 -0.0015147857
v  -0.0048765894 0.00056302891 -0.0013126574
v  -0.0048105456 0.00072642899 -0.0013126574
v  -0.0045189774 0.00051353342 -0.0015154748
v  -0.0047273994 0.00090201589 -0.00095708959
v  -0.0047273994 0.00090201589 0.00095708959
v  -0.0033087856 -0.00014929351 0.0017098121
v  -0.0046734451 0.0001225858 0.00095708959
v  -0.0049388031 0.00037898106 0.00095708965
v  -0.0049388031 0.00037898112 -0.00095708959
v  -0.0046734451 0.00012258583 -0.00095708959
v  -0.0033087854 -0.0001492935 -0.0017098121
v  -0.0033087856 -0.0001492934 -0.0017098121
v  -0.0036178101 0.00014929345 0.0017098121
v  -0.0035901689 0.0001225858 0.0017098121
v  -0.0035901689 0.00012258584 -0.0017098121
v  -0.0036178101 0.0001492934 -0.0017098121
v  -0.0028603035 -0.00090201601 -0.00095708983
v  -0.0028603035 -0.00090201601 0.00095708988
v  -0.004154345 -0.00037898141 0.00095708965
v  -0.0037797587 -0.00063430012 0.00095708971
v  -0.0039739725 -0.00039831077 0.0013261621
v  -0.0033070957 -0.00082534429 0.00095708983
v  -0.0030034492 -0.00079058396 0.0013261623
v  -0.0031656402 -0.00051836588 0.0015983802
v  -0.0036681807 -0.00031524533 0.0015983803
v  -0.0039708489 0.00051745708 0.0015989873
v  -0.0041275192 0.00012984101 0.001598987
v  -0.0043743602 0.00079119089 0.0013252536
v  -0.0050231759 0.0008184727 0.00095708959
v  -0.00509346 0.00064458372 0.00095708959
v  -0.0046079089 0.0002133688 0.0013252534
v  -0.003307096 -0.00082534435 -0.00095708983
v  -0.0030034489 -0.0007905839 -0.0013261619
v  -0.0037797587 -0.00063430006 -0.00095708971
v  -0.004154345 -0.00037898129 -0.00095708965
v  -0.0039739725 -0.00039831077 -0.001326162
v  -0.0036681807 -0.00031524542 -0.00159838
v  -0.0031656399 -0.00051836588 -0.00159838
v  -0.00509346 0.00064458372 -0.00095708965
v  -0.0046079089 0.00021336871 -0.0013252535
v  -0.0050231763 0.00081847259 -0.00095708959
v  -0.0043743607 0.00079119107 -0.0013252534
v  -0.0039708489 0.00051745703 -0.0015989873
v  -0.0041275187 0.00012984088 -0.0015989873
v  -0.0040292758 2.3517605e-05 0.0016089665
v  -0.0044257822 2.3517649e-05 0.0013334509
v  -0.0037478926 -0.00024836161 -0.0016089666
v  -0.004144399 -0.00024836161 -0.0013334509
v  -0.0043920618 -0.00014929342 -0.00095708959
v  -0.0037478926 -0.00024836173 0.0016089666
v  -0.004144399 -0.00024836167 0.0013334509
v  -0.0043920618 -0.00014929348 0.00095708959
v  -0.0040292758 2.3517641e-05 -0.0016089665
v  -0.0044257822 2.3517641e-05 -0.0013334509
v  -0.0099472273 0.014979607 -9.9999997e-05
v  -0.0073472275 0.014979607 -9.9999997e-05
v  -0.0073472275 -0.014979607 -9.9999997e-05
v  -0.0099472273 -0.014979607 -9.9999997e-05
v  -0.0099472273 0.014979607 0
v  -0.0099472273 -0.014979607 0
v  -0.0073472275 -0.014979607 0
v  -0.0073472275 0.014979607 0
v  -0.021250853 -0.0063880873 -0.007086907
v  -0.021250853 0.0063880873 -0.007086907
v  -0.015113411 0.0063880873 -0.0035434535
v  -0.015113411 -0.0063880873 -0.0035434535
v  -0.015113411 0.0063880873 0.0035434535
v  -0.015113411 -0.0063880873 0.0035434535
v  -0.021250853 0.0063880873 0.007086907
v  -0.021250853 -0.0063880873 0.007086907
v  -0.027388295 0.0063880873 0.0035434535
v  -0.027388295 -0.0063880873 0.0035434535
v  -0.027388295 0.0063880873 -0.0035434535
v  -0.026548496 0.0063880873 -0.0030585949
v  -0.021250853 0.0063880873 -0.0061171898
v  -0.027388295 -0.0063880873 -0.0035434535
v  -0.026548496 -0.0057618609 -0.0030585949
v  -0.021250853 -0.0057618609 -0.0061171898
v  -0.021250853 0.0063880873 0.0061171898
v  -0.026548496 0.0063880873 0.0030585949
v  -0.015953211 0.0063880873 -0.0030585949
v  -0.015953211 0.0063880873 0.0030585949
v  -0.021250853 -0.0057618609 0.0061171898
v  -0.026548496 -0.0057618609 0.0030585949
v  -0.015953211 -0.0057618609 -0.0030585949
v  -0.015953211 -0.0057618609 0.0030585949
v  -0.05397363 -0.014849999 0.0017022835
v  -0.053729229 -0.014849999 0.0021098342
v  -0.053729229 0.014849999 0.0021098319
v  -0.05397363 0.014849999 0.0017022809
v  -0.053289 0.014849999 0.0021098319
v  -0.032729231 0.014849999 0.0021098319
v  -0.032324549 0.015104053 0.0021098319
v  -0.053236056 0.015104053 0.0021098319
v  -0.053289 0.014849999 -0.0021098342
v  -0.053729229 0.014849999 -0.0021098342
v  -0.053683817 0.015104053 -0.0021098342
v  -0.053236056 0.015104053 -0.0021098342
v  -0.032729231 0.014849999 -0.0021098342
v  -0.032729231 -0.014849999 -0.0021098319
v  -0.053289 -0.014849999 -0.0021098319
v  -0.053289 -0.014849999 0.0021098342
v  -0.053953264 0.014849999 -0.0017691702
v  -0.053911686 0.015104053 -0.0017691702
v  -0.05462537 -0.014849999 -0.00074717536
v  -0.05462537 -0.014849999 0.00061548123
v  -0.05462537 0.014849999 0.00061547867
v  -0.05462537 0.014849999 -0.00074717775
v  -0.053953264 -0.014849999 -0.0017691677
v  -0.054595288 0.015104053 -0.00074717775
v  -0.053683817 0.015104053 0.0021098319
v  -0.053932399 0.015104053 0.0017022809
v  -0.054595288 -0.015104053 0.00061548123
v  -0.053932399 -0.015104053 0.0017022835
v  -0.053683817 -0.015104053 0.0021098342
v  -0.054595288 0.015104053 0.00061547867
v  -0.032729231 -0.014849999 0.0021098342
v  -0.053729229 -0.014849999 -0.0021098319
v  -0.053508341 0.014849999 -0.0017691702
v  -0.032729231 0.014849999 -0.0017691702
v  -0.032324549 0.015104053 -0.0017691702
v  -0.053459145 0.015104053 -0.0017691702
v  -0.053236056 -0.015104053 0.0021098342
v  -0.032324549 -0.015104053 0.0021098342
v  -0.054595288 -0.015104053 -0.00074717536
v  -0.032729231 -0.014849999 -0.0017691676
v  -0.032324549 -0.015104053 -0.0017691676
v  -0.053236056 -0.015104053 -0.0021098319
v  -0.053683817 -0.015104053 -0.0021098319
v  -0.054166354 -0.014849999 -0.00074717536
v  -0.054166354 -0.014849999 0.00061548123
v  -0.05412842 -0.015104053 0.00061548123
v  -0.05412842 -0.015104053 -0.00074717536
v  -0.053479426 0.015104053 0.0017022809
v  -0.032324549 0.015104053 0.0017022809
v  -0.032324549 -0.015104053 0.0017022835
v  -0.053479426 -0.015104053 0.0017022835
v  -0.053459145 -0.015104053 -0.0017691677
v  -0.053911686 -0.015104053 -0.0017691677
v  -0.05412842 0.015104053 0.00061547867
v  -0.05412842 0.015104053 -0.00074717775
v  -0.032324549 -0.015104053 -0.0021098319
v  -0.032324549 0.015104053 -0.0021098342
v  -0.053528279 0.014849999 0.0017022809
v  -0.054166354 0.014849999 0.00061547867
v  -0.032729231 -0.014849999 0.0017022835
v  -0.032729231 0.014849999 0.0017022809
v  -0.053508338 -0.014849999 -0.0017691677
v  -0.053528279 -0.014849999 0.0017022835
v  -0.054166354 0.014849999 -0.00074717775
v  -0.051781341 -0.014849999 0.0017022835
v  -0.052502513 -0.014849999 0.0017022835
v  -0.053223681 -0.014849999 0.0017022835
v  -0.032729231 0.014849999 -0.00074717775
v  -0.032729231 0.014849999 0.00061547867
v  -0.032729231 -0.014849999 0.00061548123
v  -0.032729231 -0.014849999 -0.00074717519
v  -0.052502438 -0.014849999 0.00061548123
v  -0.052502498 -0.014849999 0.0014898474
v  -0.053223662 -0.014849999 0.0014898009
v  -0.053223573 -0.014849999 0.00061548123
v  -0.0517813 -0.014849999 0.00061548123
v  -0.051781334 -0.014849999 0.001489894
v  -0.052502513 -0.017130569 -0.00026413167
v  -0.052502498 -0.016929023 -0.00033127109
v  -0.051781334 -0.017195979 -0.0011325014
v  -0.051781341 -0.017397484 -0.0010653761
v  -0.052502498 -0.016287765 0.00052759779
v  -0.051781334 -0.016755557 8.9937595e-05
v  -0.053223681 -0.01686563 0.0002506341
v  -0.053223662 -0.016755506 8.9867142e-05
v  -0.053223662 -0.01719589 -0.0011325311
v  -0.053223681 -0.017397484 -0.0010653761
v  -0.051781341 -0.01686563 0.0002506341
v  -0.052502513 -0.016397865 0.00070011098
v  -0.052502498 -0.015557263 0.0012434389
v  -0.053223662 -0.015970489 0.0011565064
v  -0.052502513 -0.015579118 0.0014826615
v  -0.051781341 -0.015992349 0.0013667156
v  -0.053223681 -0.015992349 0.0013667156
v  -0.051781334 -0.015970498 0.0011565984
v  0.012578202 0.0070033907 0.00075000001
v  0.012578202 0.0070033907 -0.00075000001
v  0.012675918 0.0070033907 -0.00080641627
v  0.012675918 0.0070033907 0.00080641627
v  0.011279164 0.0070033907 -0.0015
v  0.0099801254 0.0070033907 -0.00075000001
v  0.0098824101 0.0070033907 -0.00080641627
v  0.011279164 0.0070033907 -0.0016128325
v  0.011279164 0.0070033907 0.0015
v  0.011279164 0.0070033907 0.0016128325
v  0.0099801254 0.0070033907 0.00075000001
v  0.0098824101 0.0070033907 0.00080641627
v  0.011279164 0.0099999998 -0.0016128325
v  0.012675918 0.0099999998 -0.00080641627
v  0.012675918 0.0099999998 0.00080641627
v  0.011279164 0.0099999998 0.0016128325
v  0.0098824101 0.0099999998 0.00080641627
v  0.0098824101 0.0099999998 -0.00080641627
v  0.011279162 -0.0093548559 -0.00035267445
v  0.011279164 -0.0066431072 -0.0015
v  0.012578202 -0.0066431076 -0.00075000001
v  0.011584587 -0.0093548559 -0.00017633723
v  0.012578202 -0.0066431076 0.00075000001
v  0.011584587 -0.0093548559 0.00017633729
v  0.011279164 -0.0066431076 0.0015
v  0.011279162 -0.0093548559 0.00035267457
v  0.0099801254 -0.0066431076 0.00075000001
v  0.010973737 -0.0093548559 0.00017633729
v  0.0099801254 -0.0066431076 -0.00075000001
v  0.010973737 -0.0093548559 -0.00017633723
v  0.011225373 -0.010334139 -3.1056541e-05
v  0.011225373 -0.010334139 3.1056607e-05
v  0.011332955 -0.010334139 -3.1056541e-05
v  0.011279164 -0.010334139 -6.2113104e-05
v  0.011279164 -0.010334139 6.2113191e-05
v  0.011332955 -0.010334139 3.1056607e-05
v  0.0099801254 0.011074259 0.00075000001
v  0.0099801254 0.011074259 -0.00075000001
v  0.011279164 0.011074259 -0.0015
v  0.011279164 0.011074259 0.0015
v  0.012578202 0.011074259 -0.00075000001
v  0.012578202 0.011074259 0.00075000001
v  0.027623143 0.0099999998 0.00075000001
v  0.027623143 0.0099999998 -0.00075000001
v  0.027384419 0.010557533 -0.00061217276
v  0.027384419 0.010557533 0.00061217276
v  0.025025066 0.0099999998 -0.00075000001
v  0.025025066 0.0099999998 0.00075000001
v  0.02526379 0.010557533 0.00061217276
v  0.02526379 0.010557533 -0.00061217276
v  0.026324105 0.0099999998 -0.0015
v  0.026324105 0.010557533 -0.0012243455
v  0.026324105 0.0099999998 0.0015
v  0.026324105 0.010557533 0.0012243455
v  0.025874214 -0.0093377139 -0.00025974447
v  0.025025066 -0.0064804116 -0.00075000001
v  0.026324105 -0.0064804116 -0.0015
v  0.026324105 -0.0093377139 -0.00051948882
v  0.025874214 -0.0093377139 0.00025974447
v  0.025025066 -0.0064804116 0.00075000001
v  0.026324105 -0.0093377139 0.00051948905
v  0.026324105 -0.0064804116 0.0015
v  0.026773995 -0.0093377139 0.00025974447
v  0.027623143 -0.0064804116 0.00075000001
v  0.026773995 -0.0093377139 -0.00025974447
v  0.027623143 -0.0064804116 -0.00075000001
v  0.026324105 -0.010517413 0.00012882055
v  0.026435666 -0.010517413 6.4410277e-05
v  0.026324105 -0.010517413 -0.00012882044
v  0.026212543 -0.010517413 -6.4410218e-05
v  0.026212543 -0.010517413 6.4410277e-05
v  0.026435666 -0.010517413 -6.4410218e-05
v  0.047712728 0.0099999998 0.00075000001
v  0.047712728 0.0099999998 -0.00075000001
v  0.047474004 0.010557533 -0.00061217276
v  0.047474004 0.010557533 0.00061217276
v  0.045114651 0.0099999998 -0.00075000001
v  0.045114651 0.0099999998 0.00075000001
v  0.045353375 0.010557533 0.00061217276
v  0.045353375 0.010557533 -0.00061217276
v  0.04641369 0.0099999998 -0.0015
v  0.04641369 0.010557533 -0.0012243455
v  0.04641369 0.0099999998 0.0015
v  0.04641369 0.010557533 0.0012243455
v  0.045963798 -0.0093377139 -0.00025974447
v  0.045114651 -0.0064804116 -0.00075000001
v  0.04641369 -0.0064804116 -0.0015
v  0.04641369 -0.0093377139 -0.00051948882
v  0.045963798 -0.0093377139 0.00025974447
v  0.045114651 -0.0064804116 0.00075000001
v  0.04641369 -0.0093377139 0.00051948905
v  0.04641369 -0.0064804116 0.0015
v  0.046863582 -0.0093377139 0.00025974447
v  0.047712728 -0.0064804116 0.00075000001
v  0.046863582 -0.0093377139 -0.00025974447
v  0.047712728 -0.0064804116 -0.00075000001
v  0.046525251 -0.010517413 -6.4410218e-05
v  0.046302129 -0.010517413 -6.4410218e-05
v  0.04641369 -0.010517413 -0.00012882044
v  0.046525251 -0.010517413 6.4410277e-05
v  0.046302129 -0.010517413 6.4410277e-05
v  0.04641369 -0.010517413 0.00012882055
v  0.024170367 0.0099999998 0.00075000001
v  0.024170367 0.0099999998 -0.00075000001
v  0.023931643 0.010557533 -0.00061217276
v  0.023931643 0.010557533 0.00061217276
v  0.02157229 0.0099999998 -0.00075000001
v  0.02157229 0.0099999998 0.00075000001
v  0.021811014 0.010557533 0.00061217276
v  0.021811014 0.010557533 -0.00061217276
v  0.022871329 0.0099999998 -0.0015
v  0.022871329 0.010557533 -0.0012243455
v  0.022871329 0.0099999998 0.0015
v  0.022871329 0.010557533 0.0012243455
v  0.022421438 -0.0093377139 -0.00025974447
v  0.02157229 -0.0064804116 -0.00075000001
v  0.022871329 -0.0064804116 -0.0015
v  0.022871329 -0.0093377139 -0.00051948882
v  0.022421438 -0.0093377139 0.00025974447
v  0.02157229 -0.0064804116 0.00075000001
v  0.022871329 -0.0093377139 0.00051948905
v  0.022871329 -0.0064804116 0.0015
v  0.023321219 -0.0093377139 0.00025974447
v  0.024170367 -0.0064804116 0.00075000001
v  0.023321219 -0.0093377139 -0.00025974447
v  0.024170367 -0.0064804116 -0.00075000001
v  0.02298289 -0.010517413 -6.4410218e-05
v  0.022759767 -0.010517413 -6.4410218e-05
v  0.022871329 -0.010517413 -0.00012882044
v  0.02298289 -0.010517413 6.4410277e-05
v  0.022759767 -0.010517413 6.4410277e-05
v  0.022871329 -0.010517413 0.00012882055
v  0.041200928 0.0099999998 0.00075000001
v  0.041200928 0.0099999998 -0.00075000001
v  0.040962204 0.010557533 -0.00061217276
v  0.040962204 0.010557533 0.00061217276
v  0.038602851 0.0099999998 -0.00075000001
v  0.038602851 0.0099999998 0.00075000001
v  0.038841575 0.010557533 0.00061217276
v  0.038841575 0.010557533 -0.00061217276
v  0.03990189 0.0099999998 -0.0015
v  0.03990189 0.010557533 -0.0012243455
v  0.03990189 0.0099999998 0.0015
v  0.03990189 0.010557533 0.0012243455
v  0.039451998 -0.0093377139 -0.00025974447
v  0.038602851 -0.0064804116 -0.00075000001
v  0.03990189 -0.0064804116 -0.0015
v  0.03990189 -0.0093377139 -0.00051948882
v  0.039451998 -0.0093377139 0.00025974447
v  0.038602851 -0.0064804116 0.00075000001
v  0.03990189 -0.0093377139 0.00051948905
v  0.03990189 -0.0064804116 0.0015
v  0.040351782 -0.0093377139 0.00025974447
v  0.041200928 -0.0064804116 0.00075000001
v  0.040351782 -0.0093377139 -0.00025974447
v  0.041200928 -0.0064804116 -0.00075000001
v  0.040013451 -0.010517413 -6.4410218e-05
v  0.039790329 -0.010517413 -6.4410218e-05
v  0.03990189 -0.010517413 -0.00012882044
v  0.040013451 -0.010517413 6.4410277e-05
v  0.039790329 -0.010517413 6.4410277e-05
v  0.03990189 -0.010517413 0.00012882055
v  0.04443584 0.0099999998 0.00075000001
v  0.04443584 0.0099999998 -0.00075000001
v  0.044197116 0.010557533 -0.00061217276
v  0.044197116 0.010557533 0.00061217276
v  0.041837763 0.0099999998 -0.00075000001
v  0.041837763 0.0099999998 0.00075000001
v  0.042076487 0.010557533 0.00061217276
v  0.042076487 0.010557533 -0.00061217276
v  0.043136802 0.0099999998 -0.0015
v  0.043136802 0.010557533 -0.0012243455
v  0.043136802 0.0099999998 0.0015
v  0.043136802 0.010557533 0.0012243455
v  0.042686909 -0.0093377139 -0.00025974447
v  0.041837763 -0.0064804116 -0.00075000001
v  0.043136802 -0.0064804116 -0.0015
v  0.043136802 -0.0093377139 -0.00051948882
v  0.042686909 -0.0093377139 0.00025974447
v  0.041837763 -0.0064804116 0.00075000001
v  0.043136802 -0.0093377139 0.00051948905
v  0.043136802 -0.0064804116 0.0015
v  0.043586694 -0.0093377139 0.00025974447
v  0.04443584 -0.0064804116 0.00075000001
v  0.043586694 -0.0093377139 -0.00025974447
v  0.04443584 -0.0064804116 -0.00075000001
v  0.043248363 -0.010517413 -6.4410218e-05
v  0.04302524 -0.010517413 -6.4410218e-05
v  0.043136802 -0.010517413 -0.00012882044
v  0.043248363 -0.010517413 6.4410277e-05
v  0.04302524 -0.010517413 6.4410277e-05
v  0.043136802 -0.010517413 0.00012882055
v  0.034442611 0.0099999998 0.00075000001
v  0.034442611 0.0099999998 -0.00075000001
v  0.034203887 0.010557533 -0.00061217276
v  0.034203887 0.010557533 0.00061217276
v  0.031844534 0.0099999998 -0.00075000001
v  0.031844534 0.0099999998 0.00075000001
v  0.032083258 0.010557533 0.00061217276
v  0.032083258 0.010557533 -0.00061217276
v  0.033143573 0.0099999998 -0.0015
v  0.033143573 0.010557533 -0.0012243455
v  0.033143573 0.0099999998 0.0015
v  0.033143573 0.010557533 0.0012243455
v  0.03269368 -0.0093377139 -0.00025974447
v  0.031844534 -0.0064804116 -0.00075000001
v  0.033143573 -0.0064804116 -0.0015
v  0.033143573 -0.0093377139 -0.00051948882
v  0.03269368 -0.0093377139 0.00025974447
v  0.031844534 -0.0064804116 0.00075000001
v  0.033143573 -0.0093377139 0.00051948905
v  0.033143573 -0.0064804116 0.0015
v  0.033593465 -0.0093377139 0.00025974447
v  0.034442611 -0.0064804116 0.00075000001
v  0.033593465 -0.0093377139 -0.00025974447
v  0.034442611 -0.0064804116 -0.00075000001
v  0.033255134 -0.010517413 -6.4410218e-05
v  0.033032011 -0.010517413 -6.4410218e-05
v  0.033143573 -0.010517413 -0.00012882044
v  0.033255134 -0.010517413 6.4410277e-05
v  0.033032011 -0.010517413 6.4410277e-05
v  0.033143573 -0.010517413 0.00012882055
v  0.020766979 0.0099999998 0.00075000001
v  0.020766979 0.0099999998 -0.00075000001
v  0.020528255 0.010557533 -0.00061217276
v  0.020528255 0.010557533 0.00061217276
v  0.018168902 0.0099999998 -0.00075000001
v  0.018168902 0.0099999998 0.00075000001
v  0.018407626 0.010557533 0.00061217276
v  0.018407626 0.010557533 -0.00061217276
v  0.019467941 0.0099999998 -0.0015
v  0.019467941 0.010557533 -0.0012243455
v  0.019467941 0.0099999998 0.0015
v  0.019467941 0.010557533 0.0012243455
v  0.01901805 -0.0093377139 -0.00025974447
v  0.018168902 -0.0064804116 -0.00075000001
v  0.019467941 -0.0064804116 -0.0015
v  0.019467941 -0.0093377139 -0.00051948882
v  0.01901805 -0.0093377139 0.00025974447
v  0.018168902 -0.0064804116 0.00075000001
v  0.019467941 -0.0093377139 0.00051948905
v  0.019467941 -0.0064804116 0.0015
v  0.019917831 -0.0093377139 0.00025974447
v  0.020766979 -0.0064804116 0.00075000001
v  0.019917831 -0.0093377139 -0.00025974447
v  0.020766979 -0.0064804116 -0.00075000001
v  0.019467941 -0.010517413 0.00012882055
v  0.019579502 -0.010517413 6.4410277e-05
v  0.019467941 -0.010517413 -0.00012882044
v  0.019356379 -0.010517413 -6.4410218e-05
v  0.019356379 -0.010517413 6.4410277e-05
v  0.019579502 -0.010517413 -6.4410218e-05
v  0.037771821 0.0099999998 0.00075000001
v  0.037771821 0.0099999998 -0.00075000001
v  0.037533097 0.010557533 -0.00061217276
v  0.037533097 0.010557533 0.00061217276
v  0.035173744 0.0099999998 -0.00075000001
v  0.035173744 0.0099999998 0.00075000001
v  0.035412468 0.010557533 0.00061217276
v  0.035412468 0.010557533 -0.00061217276
v  0.036472782 0.0099999998 -0.0015
v  0.036472782 0.010557533 -0.0012243455
v  0.036472782 0.0099999998 0.0015
v  0.036472782 0.010557533 0.0012243455
v  0.03602289 -0.0093377139 -0.00025974447
v  0.035173744 -0.0064804116 -0.00075000001
v  0.036472782 -0.0064804116 -0.0015
v  0.036472782 -0.0093377139 -0.00051948882
v  0.03602289 -0.0093377139 0.00025974447
v  0.035173744 -0.0064804116 0.00075000001
v  0.036472782 -0.0093377139 0.00051948905
v  0.036472782 -0.0064804116 0.0015
v  0.036922675 -0.0093377139 0.00025974447
v  0.037771821 -0.0064804116 0.00075000001
v  0.036922675 -0.0093377139 -0.00025974447
v  0.037771821 -0.0064804116 -0.00075000001
v  0.036584344 -0.010517413 -6.4410218e-05
v  0.036361221 -0.010517413 -6.4410218e-05
v  0.036472782 -0.010517413 -0.00012882044
v  0.036584344 -0.010517413 6.4410277e-05
v  0.036361221 -0.010517413 6.4410277e-05
v  0.036472782 -0.010517413 0.00012882055
v  0.031081676 0.0099999998 0.00075000001
v  0.031081676 0.0099999998 -0.00075000001
v  0.030842952 0.010557533 -0.00061217276
v  0.030842952 0.010557533 0.00061217276
v  0.028483599 0.0099999998 -0.00075000001
v  0.028483599 0.0099999998 0.00075000001
v  0.028722323 0.010557533 0.00061217276
v  0.028722323 0.010557533 -0.00061217276
v  0.029782638 0.0099999998 -0.0015
v  0.029782638 0.010557533 -0.0012243455
v  0.029782638 0.0099999998 0.0015
v  0.029782638 0.010557533 0.0012243455
v  0.029332748 -0.0093377139 -0.00025974447
v  0.028483599 -0.0064804116 -0.00075000001
v  0.029782638 -0.0064804116 -0.0015
v  0.029782638 -0.0093377139 -0.00051948882
v  0.029332748 -0.0093377139 0.00025974447
v  0.028483599 -0.0064804116 0.00075000001
v  0.029782638 -0.0093377139 0.00051948905
v  0.029782638 -0.0064804116 0.0015
v  0.030232528 -0.0093377139 0.00025974447
v  0.031081676 -0.0064804116 0.00075000001
v  0.030232528 -0.0093377139 -0.00025974447
v  0.031081676 -0.0064804116 -0.00075000001
v  0.029782638 -0.010517413 0.00012882055
v  0.029894199 -0.010517413 6.4410277e-05
v  0.029782638 -0.010517413 -0.00012882044
v  0.029671077 -0.010517413 -6.4410218e-05
v  0.029671077 -0.010517413 6.4410277e-05
v  0.029894199 -0.010517413 -6.4410218e-05

# 337 UV coordinates
vt 0.16666657 0.42930591 0
vt 0.16666658 0.18801749 0
vt -8.9406967e-08 0.18801749 0
vt -8.9406967e-08 0.42930591 0
vt 0.33333325 0.42930591 0
vt 0.33333325 0.18801749 0
vt 0.49999994 0.42930591 0
vt 0.49999994 0.18801749 0
vt 0.66666663 0.42930591 0
vt 0.66666663 0.18801749 0
vt 0.83333337 0.42930591 0
vt 0.83333337 0.18801749 0
vt 1 0.42930591 0
vt 1 0.18801749 0
vt 0.16660231 0.065467477 0
vt 0.16666658 0.036968231 0
vt -8.9406967e-08 0.036968231 0
vt -0.00045282952 0.065467417 0
vt 0.49999997 0.065467596 0
vt 0.49999994 0.036968231 0
vt 0.33333325 0.036968231 0
vt 0.33333322 0.065467596 0
vt 0.66666663 0.065467477 0
vt 0.66666663 0.036968231 0
vt 0.83339763 0.065467596 0
vt 0.83333337 0.036968231 0
vt 1.0004528 0.065467536 0
vt 1 0.036968231 0
vt 0.99874651 0.17376488 0
vt 0.83333337 0.17376494 0
vt 0.66666669 0.17376482 0
vt 0.49999997 0.17376494 0
vt 0.33333325 0.17376494 0
vt 0.1666666 0.17376482 0
vt 0.0012534703 0.17376482 0
vt 1 0 0
vt 0.83333331 0 0
vt 0.66666663 0 0
vt 0.49999994 0 0
vt 0.33333325 0 0
vt 0.16666658 0 0
vt -8.9406967e-08 0 0
vt 1 0.5 0
vt 0.83333331 0.5 0
vt 0.66666663 0.5 0
vt 0.49999994 0.5 0
vt 0.33333325 0.5 0
vt 0.16666658 0.5 0
vt -8.9406967e-08 0.5 0
vt 0.16666657 0.036968231 0
vt 0.33333325 0.065467596 0
vt 0.95784611 0.63 0
vt 0.54215389 0.63 0
vt 0.75 0.50999999 0
vt 0.95784611 0.87 0
vt 0.54215389 0.87 0
vt 0.75 0.99000001 0
vt 0.04215391 0.63 0
vt 0.45784611 0.63 0
vt 0.25 0.50999999 0
vt 0.04215391 0.87 0
vt 0.45784611 0.87 0
vt 0.25 0.99000001 0
vt 0.35534644 0.27903491 0
vt 0.35728499 0.27903491 0
vt 0.34678823 0.25 0
vt 0.60155541 0.27887946 0
vt 0.6312741 0.27887946 0
vt 0.6125378 0.26425785 0
vt 0.4288353 0.51641029 0
vt 0.42197633 0.5074172 0
vt 0.39933255 0.51431954 0
vt 0.5806272 0.51352596 0
vt 0.625 0.50714648 0
vt 0.58578783 0.50668335 0
vt 0.44748139 0.44497037 0
vt 0.47931117 0.44497037 0
vt 0.47931117 0.30502963 0
vt 0.44748136 0.30502963 0
vt 0.47931117 0.66024971 0
vt 0.47931117 0.53179657 0
vt 0.5169878 0.44497037 0
vt 0.55251867 0.44497037 0
vt 0.55251867 0.30502951 0
vt 0.5169878 0.30502951 0
vt 0.5169878 0.21820331 0
vt 0.52068883 0.21820343 0
vt 0.52068889 0.098820984 0
vt 0.5169878 0.098009646 0
vt 0.64709413 0.44497037 0
vt 0.75331306 0.44497037 0
vt 0.75331277 0.30502957 0
vt 0.64709413 0.30502963 0
vt 0.5169878 0.65199053 0
vt 0.52068889 0.65117925 0
vt 0.52068889 0.53179663 0
vt 0.5169878 0.53179663 0
vt 0.19188394 0.30502963 0
vt 0.19188404 0.44497037 0
vt 0.35290587 0.44497037 0
vt 0.3529059 0.30502963 0
vt 0.47931117 0.21820343 0
vt 0.47931114 0.089750409 0
vt 0.36158761 0.30502963 0
vt 0.34254342 0.27811408 0
vt 0.41900036 0.30502963 0
vt 0.43947494 0.27903497 0
vt 0.48147625 0.27811414 0
vt 0.48200685 0.23375547 0
vt 0.375 0.22178823 0
vt 0.375 0.20569944 0
vt 0.33069944 0.25 0
vt 0.59554136 0.30502957 0
vt 0.56630242 0.27804768 0
vt 0.63397974 0.30502969 0
vt 0.6321466 0.2788794 0
vt 0.64289248 0.25 0
vt 0.625 0.23210758 0
vt 0.57183433 0.22521347 0
vt 0.5806272 0.23647398 0
vt 0.60307479 0.23804706 0
vt 0.54368627 0.23379374 0
vt 0.48200688 0.51624453 0
vt 0.375 0.54430056 0
vt 0.48147625 0.47188592 0
vt 0.43947497 0.47096509 0
vt 0.41900039 0.44497037 0
vt 0.36158758 0.44497037 0
vt 0.35534644 0.47096503 0
vt 0.34254339 0.47188592 0
vt 0.33069944 0.5 0
vt 0.34678823 0.48579246 0
vt 0.57183433 0.52478647 0
vt 0.54368621 0.51620626 0
vt 0.625 0.51789248 0
vt 0.63397968 0.44497037 0
vt 0.63214654 0.5 0
vt 0.64289248 0.5 0
vt 0.59554136 0.44497037 0
vt 0.60155541 0.47112048 0
vt 0.56630254 0.47195226 0
vt 0.75331295 0.5 0
vt 0.625 0.62831306 0
vt 0.57284445 0.63974619 0
vt 0.50309002 0.47248518 0
vt 0.49303991 0.51589829 0
vt 0.49303991 0.23410165 0
vt 0.50309002 0.27751476 0
vt 0.19188391 0.27751482 0
vt 0.19188389 0.25 0
vt 0.375 0.066883922 0
vt 0.75331271 0.25 0
vt 0.625 0.12168741 0
vt 0.57284445 0.11025417 0
vt 0.19188407 0.47248518 0
vt 0.1918841 0.5 0
vt 0.375 0.6831159 0
vt 0.54076666 0.47248518 0
vt 0.53071654 0.51589829 0
vt 0.53071654 0.23410159 0
vt 0.5407666 0.27751476 0
vt 0.125 0.27887946 0
vt 0.13214649 0.27887952 0
vt 0.12879878 0.25 0
vt 0.57116467 0.016410351 0
vt 0.625 0.019653618 0
vt 0.56052494 0 0
vt 0.13214651 0.47112048 0
vt 0.125 0.47112048 0
vt 0.12879878 0.5 0
vt 0.56052494 0.77903497 0
vt 0.625 0.77903497 0
vt 0.53244925 0.76420748 0
vt 0.85290593 0.44497037 0
vt 0.85290593 0.30502957 0
vt 0.47931114 0.031796634 0
vt 0.5169878 0.94497037 0
vt 0.55251867 0.94497037 0
vt 0.55251861 0.80502963 0
vt 0.5169878 0.80502963 0
vt 0.47931117 0.71820337 0
vt 0.52068889 0.031796634 0
vt 0.51698774 0.031796634 0
vt 0.5169878 0.71820337 0
vt 0.52068889 0.71820343 0
vt 0.14709412 0.44497043 0
vt 0.1470941 0.30502963 0
vt 0.44748133 0.94497037 0
vt 0.375 0.94497037 0
vt 0.375 0.97112054 0
vt 0.43369758 1 0
vt 0.125 0.30502957 0
vt 0.13397975 0.30502963 0
vt 0.14289246 0.27804768 0
vt 0.13813178 0.25 0
vt 0.45631379 0.016206205 0
vt 0.375 0.0037987828 0
vt 0.375 0.013131797 0
vt 0.43369758 0 0
vt 0.375 0 0
vt 0.57170844 0.032618403 0
vt 0.51799315 0.01624459 0
vt 0.625 0.032456636 0
vt 0.875 0.30502963 0
vt 0.85534644 0.25 0
vt 0.84254342 0.25 0
vt 0.625 0.94497037 0
vt 0.58099967 0.94497037 0
vt 0.56052506 1 0
vt 0.57863295 1 0
vt 0.51852375 1 0
vt 0.51852369 0 0
vt 0.13397974 0.44497043 0
vt 0.14289248 0.47195232 0
vt 0.125 0.44497037 0
vt 0.44748139 0.80502963 0
vt 0.43369761 0.77804768 0
vt 0.37500003 0.77887952 0
vt 0.375 0.80502963 0
vt 0.45631379 0.7337938 0
vt 0.375 0.74620122 0
vt 0.375 0.7368682 0
vt 0.1381318 0.5 0
vt 0.58099961 0.80502963 0
vt 0.51852375 0.77811408 0
vt 0.625 0.80502963 0
vt 0.84254342 0.5 0
vt 0.875 0.47096503 0
vt 0.875 0.44497037 0
vt 0.625 0.71754336 0
vt 0.57170838 0.71738172 0
vt 0.57116473 0.73358965 0
vt 0.625 0.75 0
vt 0.51799321 0.73375541 0
vt 0.50325906 0.015898287 0
vt 0.51698774 0 0
vt 0.5169878 1 0
vt 0.46558243 0.73410171 0
vt 0.45553231 0.77751482 0
vt 0.47931117 0.80502963 0
vt 0.19188388 0.5 0
vt 0.4655824 0.015898347 0
vt 0.45553231 0 0
vt 0.45553231 1 0
vt 0.47931114 0.94497037 0
vt 0.50325906 0.73410165 0
vt 0.49320897 0.77751482 0
vt 0.49320894 0 0
vt 0.47931114 0 0
vt 0.47931114 1 0
vt 0.49320894 1 0
vt 0.99939328 0.02587676 0
vt 0.99939448 0.9873051 0
vt -0.0004689403 0.9873051 0
vt -0.00046940823 0.02587676 0
vt 0.6008541 1 0
vt 0.625 1 0
vt 0.6008541 0.75 0
vt 0.86975914 0.5 0
vt 0.625 0.5 0
vt 0.13024083 0.5 0
vt 0.125 0.5 0
vt 0.375 0.5 0
vt 0.375 0.25 0
vt 0.13024083 0.25 0
vt 0.875 0.5 0
vt 0.875 0.25 0
vt 0.86975914 0.25 0
vt 0.375 0.75 0
vt 0.39518312 0.75 0
vt 0.45573246 1 0
vt 0.53646493 1 0
vt 0.53646493 0.75 0
vt 0.45573249 0.75 0
vt 0.39518312 1 0
vt 0.625 0.25 0
vt 0.125 0.25 0
vt 0.39518315 0.74475914 0
vt 0.39518312 0.5 0
vt 0.39518312 0.25 0
vt 0.45573246 0.005240798 0
vt 0.53646493 0.0052406788 0
vt 0.375 1 0
vt 0.60085416 0.74475914 0
vt 0.625 0.7447592 0
vt 0.60085404 0.5 0
vt 0.60085404 0.25 0
vt 0.60085404 0.0052408576 0
vt 0.625 0.005240798 0
vt 0.625 0 0
vt 0.60085398 5.9604645e-08 0
vt 0.53646493 0 0
vt 0.45573246 0 0
vt 0.39518315 0.0052407384 0
vt 0.39518309 5.9604645e-08 0
vt 0.53646493 0.74475914 0
vt 0.45573249 0.7447592 0
vt 0.375 0.7447592 0
vt 0.375 0.005240798 0
vt 0.60085404 0.0257985 0
vt 0.60085404 0.017311931 0
vt 0.60085404 0.0088253021 0
vt 0.45573246 0.5 0
vt 0.53646493 0.5 0
vt 0.53646493 0.25 0
vt 0.45573249 0.25 0
vt 0.53646493 0.024238527 0
vt 0.58826798 0.018646121 0
vt 0.58826524 0.010225534 0
vt 0.53646493 0.01600492 0
vt 0.53646493 0.032472134 0
vt 0.58827072 0.027066767 0
vt 0.58827066 0.027066708 0
vt 0.60085404 0.0088252425 0
vt 0.5882653 0.010225534 0
vt 0.60085404 0.01731205 0
vt 0.66666663 0.07491529 0
vt 0.83333331 0.07491529 0
vt -8.9406967e-08 0.07491529 0
vt 0.16666658 0.07491529 0
vt 0.49999994 0.07491529 0
vt 0.33333325 0.07491529 0
vt 1 0.07491523 0
vt 1 0.41607761 0
vt 0.83333319 0.41607773 0
vt 0.66666663 0.41607773 0
vt 0.49999994 0.41607773 0
vt 0.33333325 0.41607773 0
vt 0.1666666 0.41607761 0
vt -8.9406967e-08 0.41607773 0
vt 0.16666658 0.41201031 0
vt -8.9406967e-08 0.41201031 0
vt 0.33333325 0.41201031 0
vt 0.49999994 0.41201037 0
vt 0.66666663 0.41201031 0
vt 0.83333325 0.41201031 0
vt 0.99999994 0.41201031 0

# 337 vertex normals
vn -0.49982271 -0.026633047 -0.86571819
vn -0.99964529 -0.026633043 -0
vn -0.49982271 -0.026633043 0.86571819
vn 0.49982271 -0.026633047 0.86571819
vn 0.99964529 -0.026633043 0
vn 0.49982271 -0.026633043 -0.86571819
vn -0.49996582 -0.011698551 -0.8659662
vn -0.99993163 -0.0116985 1.7212528e-07
vn -0.49996582 -0.011698569 0.8659662
vn 0.49996582 -0.011698551 0.8659662
vn 0.99993157 -0.01169851 0
vn 0.49996582 -0.011698569 -0.8659662
vn 0.49996579 -0.011698582 -0.8659662
vn 0.99993163 -0.011698584 0
vn 0.49996579 -0.011698582 0.8659662
vn -0.49996579 -0.011698582 0.8659662
vn -0.99993163 -0.011698584 -0
vn -0.49996579 -0.011698582 -0.8659662
vn -0.99993157 -0.01169873 -0
vn -0.99993157 -0.011698362 -0
vn -0.99993163 -0.011698497 -1.7212528e-07
vn 0.49552593 0.13348027 -0.85827565
vn 0.9910515 0.13348021 0
vn 0.49552587 0.13348024 0.85827565
vn -0.49552593 0.13348027 0.85827565
vn 0.6266427 0.77930665 0
vn -0.9910515 0.13348021 0
vn -0.49552587 0.13348024 -0.85827565
vn 0.48275471 -0.26036799 -0.83615571
vn 0.96550947 -0.26036793 0
vn 0.48275471 -0.26036796 0.83615571
vn -0.48275465 -0.26036799 0.83615583
vn -0.96550947 -0.26036796 -0
vn -0.48275489 -0.26036796 -0.83615565
vn 0.17149135 -0.9393416 -0.29703236
vn -0.17067418 0.93993723 0.29561532
vn -0.34298354 -0.93934143 -0
vn 0.17067418 0.93993723 0.29561532
vn 0.34298354 -0.93934143 0
vn -0.17067406 0.93993729 -0.29561511
vn 0.49994743 -0.014493588 -0.86593449
vn 0.99989498 -0.014493343 0
vn 0.4999477 -0.014493408 0.86593443
vn -0.49994758 -0.014493438 0.86593443
vn -0.99989504 -0.014493342 -0
vn -0.49994743 -0.014493558 -0.86593449
vn -0.17149135 -0.9393416 0.29703236
vn 0.17067406 0.93993729 -0.29561511
vn -0.34134823 0.93993694 0
vn 0.34134823 0.93993694 0
vn 0.17149135 -0.9393416 0.29703236
vn -0.17149135 -0.9393416 -0.29703236
vn -0.62664336 0.77930629 0
vn 0.31332192 0.77930617 -0.54268897
vn 0.31332129 0.77930635 0.5426892
vn -0.31332129 0.77930629 -0.5426892
vn -0.31332132 0.77930617 0.54268926
vn -0.12375682 -0.0081504313 -0.99227917
vn -0.99993157 -0.011699079 -0
vn -0.16503116 0.98628837 0
vn 0.99682683 0.079600893 0
vn -0.12375694 -0.0081504313 0.99227917
vn 7.901225e-05 -0.0067535825 0.99997729
vn 0.011698259 -0.99993157 0
vn -0.011698744 0.99993157 0
vn 7.901225e-05 -0.0067535825 -0.99997729
vn -0.12457995 -0.048468534 0.99102509
vn -0.1242918 -0.033189159 0.99169058
vn -0.99377406 -0.11141507 -0
vn -0.12429176 -0.033189148 -0.99169052
vn -0.024272814 -0.99970543 -0
vn -0.99119753 -0.1323915 -0
vn 0.99679893 0.07994964 0
vn -0.12457999 -0.048468556 -0.99102509
vn 1.5077006e-06 -1 0
vn -3.4019277e-07 1 0
vn 0.46474284 -0.18784527 0.86529094
vn 0.33011603 0.81674159 0.47324055
vn 0.4647443 -0.18784514 -0.86529022
vn 0.33011654 0.81674212 -0.47323936
vn 0.69485754 0.71914744 0
vn -2.3276368e-08 0 -1
vn 0.69485748 0.7191475 0
vn 0 4.1721783e-06 1
vn -3.5330178e-08 1 7.6303208e-14
vn 1.4262842e-08 -2.3468519e-06 -1
vn 3.2479214e-08 -1 2.3230944e-14
vn 0 0 1
vn 0.18867713 -0.89732933 0.39900011
vn 0.77683854 -0.31399059 0.54583144
vn 0.75920379 0.51420909 0.39899734
vn 0.50438923 0.35062146 0.78908563
vn 0.18177006 -0.073470168 0.98059261
vn 0.11909773 -0.60262841 0.78908473
vn 0.56317055 0.79815125 0.21399435
vn 0.37080729 0.91741568 0.14439715
vn 0.14959833 0.96531177 0.21399473
vn 0.072115116 0.75486386 0.65190494
vn 0.14453547 0.35759571 0.92262393
vn 0.4726606 0.59296829 0.65190536
vn 0.18177009 -0.073469631 -0.98059267
vn 0.50439024 0.35062283 -0.78908449
vn 0.75920266 0.51420856 -0.39900002
vn 0.77683818 -0.31398806 -0.54583341
vn 0.18867716 -0.89732939 -0.39900014
vn 0.11909787 -0.60262841 -0.78908479
vn 0.14453559 0.35759497 -0.92262411
vn 0.072114684 0.75486416 -0.65190464
vn 0.14959784 0.96531177 -0.21399482
vn 0.37080774 0.91741538 -0.1443976
vn 0.56317085 0.79815084 -0.21399502
vn 0.47266173 0.59296763 -0.65190512
vn 0.0016497411 0.96184534 -0.27358863
vn 0.0032889713 0.70758957 -0.70661604
vn 0.0015240433 0.27415249 -0.96168506
vn 0.68040735 0.67327958 -0.2893796
vn 0.51063716 0.41717204 -0.75180924
vn 0.20971169 0.063675597 -0.97568774
vn 0.27181873 -0.96234858 4.8309897e-08
vn 0.92713177 -0.37473559 1.8340064e-07
vn 0.86417246 0.50319588 4.5901299e-08
vn 0.16913258 0.98559332 4.4754e-08
vn 0.37473488 0.92713201 9.1777096e-08
vn 0.5632149 0.82631052 -6.0159039e-08
vn 0.20971185 0.063672721 0.9756878
vn 0.51063681 0.41717383 0.75180864
vn 0.68040675 0.67328012 0.28937966
vn 0.0011153565 -0.96174186 0.27395508
vn 0.0026065281 -0.70614612 0.7080614
vn 0.0013000469 -0.27289534 0.96204293
vn 0.0016497407 0.9618454 0.27358887
vn 0.0032889873 0.70758975 0.70661587
vn 0.0015240347 0.27415246 0.96168512
vn 0.0011153431 -0.96174192 -0.27395487
vn 0.0026065146 -0.70614606 -0.70806146
vn 0.0013000282 -0.27289528 -0.96204287
vn 0.65620619 0.70668465 -0.26455674
vn 0.46313551 0.56839377 -0.6800251
vn 0.16373044 0.26730168 -0.94960111
vn 0.16373082 0.2672984 0.94960195
vn 0.46313557 0.56839216 0.68002641
vn 0.65620667 0.70668423 0.26455668
vn -0.33011642 -0.81674236 0.47323906
vn -0.46474281 0.18784632 0.86529064
vn -0.33011723 -0.81674284 -0.4732376
vn -0.46474558 0.18784359 -0.86528981
vn 0 1 0
vn -0.69485748 -0.71914744 -0
vn 0 0 -1
vn 0 -3.282149e-06 1
vn 0 5.1529305e-06 -1
vn -1.7975191e-08 -1 -0
vn -0.56317085 -0.79815102 0.21399471
vn -0.37080744 -0.91741562 0.14439714
vn -0.14959821 -0.96531177 0.21399455
vn -0.072115086 -0.75486338 0.65190542
vn -0.14453541 -0.35759529 0.92262405
vn -0.47266167 -0.59296799 0.65190482
vn -0.1817701 0.073469035 0.98059267
vn -0.11909792 0.60262871 0.78908461
vn -0.18867728 0.89732927 0.39900029
vn -0.77683789 0.31399035 0.54583234
vn -0.75920314 -0.51420891 0.39899853
vn -0.50438988 -0.35062298 0.78908455
vn -0.14959754 -0.96531177 -0.21399499
vn -0.37080795 -0.91741532 -0.14439799
vn -0.56317055 -0.79815102 -0.21399534
vn -0.47266164 -0.59296811 -0.65190476
vn -0.14453542 -0.3575955 -0.92262399
vn -0.072114676 -0.7548638 -0.65190506
vn -0.75920284 -0.51420772 -0.39900091
vn -0.77683842 0.31398711 -0.54583347
vn -0.18867719 0.89732939 -0.39899996
vn -0.11909804 0.60262835 -0.78908473
vn -0.18177012 0.073469356 -0.98059267
vn -0.50439018 -0.35062259 -0.78908449
vn -0.16913246 -0.98559344 2.2377003e-08
vn -0.37473488 -0.92713201 2.4720681e-08
vn -0.56321502 -0.82631046 5.348181e-09
vn -0.20210545 -0.11831731 0.97219056
vn -0.50742656 -0.43468711 0.74401975
vn -0.67896122 -0.67556506 0.28744328
vn -0.27181911 0.96234846 2.9205903e-08
vn -0.92713171 0.37473583 1.583314e-07
vn -0.8641724 -0.50319588 7.3669035e-08
vn -0.14320348 -0.31896269 -0.93688619
vn -0.4562642 -0.58184969 -0.67325616
vn -0.65452313 -0.70872468 -0.26326579
vn -0.003810602 -0.96194869 -0.27320346
vn -0.0072217421 -0.70815694 -0.70601815
vn -0.0032005238 -0.2744495 -0.96159625
vn -0.0018412422 0.96165013 0.27427307
vn -0.0045284098 0.70543408 0.70876104
vn -0.0024055003 0.27240965 0.96217847
vn -0.0038105035 -0.96194881 0.27320319
vn -0.0072216494 -0.70815659 0.70601857
vn -0.0032004912 -0.27444917 0.96159637
vn -0.0018412585 0.96165013 -0.27427295
vn -0.00452842 0.70543414 -0.70876104
vn -0.0024055105 0.27240947 -0.96217847
vn -0.14320399 -0.31896165 0.93688643
vn -0.45626453 -0.58184898 0.67325658
vn -0.65452313 -0.70872474 0.2632657
vn -0.20210528 -0.11832 -0.97219026
vn -0.50742668 -0.43468738 -0.74401951
vn -0.67896128 -0.67556489 -0.28744331
vn -0.69485748 -0.7191475 -0
vn 0 9.8848595e-08 1
vn -0.6948576 -0.71914744 -0
vn 0 1.4808587e-07 -1
vn 0.69485748 0.71914744 0
vn 0 6.8691446e-07 -1
vn -0.17984211 -0.18612835 -0.96592605
vn -0.4913387 -0.50851434 -0.70710641
vn -0.67118073 -0.69464308 -0.25881949
vn 0.67118078 0.6946432 -0.25881878
vn 0.49133846 0.50851417 -0.70710671
vn 0.17984213 0.18612835 -0.96592605
vn 0.17984194 0.18612832 0.96592605
vn 0.49133855 0.50851387 0.70710683
vn 0.67118073 0.69464308 0.25881949
vn -0.17984204 -0.18612839 0.96592605
vn -0.49133912 -0.5085144 0.70710605
vn -0.67118078 -0.69464302 0.25881946
vn -1 0 -0
vn 1 0 0
vn 0 -1 0
vn 0.0035434535 0 -0.0061374414
vn 0.007086907 0 0
vn 0.0035434535 0 0.0061374414
vn -0.0035434535 0 0.0061374414
vn 0 0.0063880873 0
vn -0.007086907 0 0
vn -0.0035434535 0 -0.0061374414
vn 0.0035434535 0 0.0061374423
vn 0.0035434535 0 -0.0061374423
vn -0.0035434535 0 -0.0061374423
vn -0.0035434535 0 0.0061374423
vn 0 -0.0063880873 0
vn 2.1822e-10 0.0063880873 0
vn -0.010424592 2.1276186e-11 0.00025240541
vn 0 1.7784563e-10 0.0021098331
vn 0 -1.7784563e-10 -0.0021098331
vn -0.010120531 0.0034658844 -0.00027102578
vn -0.0105 0 0
vn -0.010409507 -2.3298741e-11 -0.00027639957
vn -0.010210305 0.0028804138 -0.00027343034
vn -0.010136836 0.0034576093 0.000247538
vn -0.010424592 2.1276238e-11 0.00025240603
vn -0.010226658 -0.0028709704 0.00024973246
vn -0.010136836 -0.0034576093 0.00024753858
vn -0.010226658 0.0028709704 0.00024973199
vn -0.010355795 -0.0024526848 2.0674586e-10
vn 0.010273417 0.0030683517 -2.5864269e-10
vn -0.010409507 -2.329875e-11 -0.00027639966
vn 0 0.014849999 -1.2517613e-09
vn 0.0105 0 0
vn 0 -0.014849999 1.2517613e-09
vn 0 -0.014849999 1.3431665e-09
vn 0 0.014849999 -1.7260797e-09
vn 0 0.014849999 -6.840426e-10
vn 0 -0.014849999 9.8432751e-10
vn -0.010120531 -0.0034658855 -0.00027102529
vn 0.010138838 -0.0034639167 -0.00024239605
vn 0.010123169 0.0034719885 0.00026541241
vn -0.010355795 0.0024526848 -2.0674586e-10
vn 0.010138837 0.0034639162 -0.00024239748
vn 0.010123152 -0.0034720858 0.00026541253
vn -2.8638797e-10 -3.8241171e-10 0.0021098331
vn -0.010210306 -0.0028804145 -0.00027342807
vn 0.010273417 -0.0030683517 2.5864269e-10
vn -0.0096984264 -0.0052343514 -0.00031724453
vn 0.00046606219 0.014795085 -0.00015521231
vn -0.0105 2.2143468e-06 -1.6809183e-08
vn 0.0105 -8.3886158e-07 6.1152745e-09
vn 0.00021070091 -0.014801137 0.00016569006
vn -0.00021070073 -0.014801138 0.00016568993
vn -0.00046514417 0.014795145 -0.00015521127
vn 0.0096978648 -0.0052365339 -0.00031721019
vn -0.00065164955 0.013526264 -0.00086086272
vn -0.00010395534 -0.013392599 0.00091127591
vn 0.00010395543 -0.013392597 0.00091127679
vn 0.0105 -1.9998636e-07 1.4844481e-08
vn -0.0105 5.9969886e-07 -4.0804512e-08
vn 0.00065441208 0.013526035 -0.00086085038
vn -0.0021741963 0.014423302 -0.00024754085
vn -0.0018941119 -0.014490691 0.00026067588
vn 0.0018941145 -0.01449069 0.00026067573
vn 0.0105 -7.2946875e-07 1.169566e-08
vn -0.0105 2.2105144e-06 -3.2148805e-08
vn 0.0021751062 0.014423029 -0.0002475401
vn 0.49999997 0 -0.86602545
vn 0.49999997 0 0.86602545
vn -0.49999997 0 0.86602545
vn -0.49999997 0 -0.86602545
vn 0.46947721 -0.34404284 -0.81315798
vn 0.93895382 -0.34404314 0
vn 0.469477 -0.3440429 0.81315804
vn -0.46947691 -0.34404233 0.81315821
vn -0.93895435 -0.34404203 -0
vn -0.46947733 -0.34404227 -0.81315809
vn -0.96853596 -0.24887408 -0
vn 0.48426825 -0.2488713 -0.8387773
vn 0.48426825 -0.24887127 0.8387773
vn -0.48426801 -0.24887301 -0.83877695
vn -0.48426801 -0.24887298 0.83877695
vn 0.96853679 -0.24887057 0
vn -0.5 0 -0.86602545
vn -0.5 0 0.86602545
vn 0.5 0 0.86602545
vn 0.5 0 -0.86602545
vn -0.99588853 0.09058705 0
vn -0.49794406 0.090587094 -0.86246496
vn -0.49794406 0.090587094 0.86246496
vn 0.49794406 0.090587094 -0.86246496
vn 0.49794406 0.090587094 0.86246496
vn 0.99588853 0.09058705 0
vn 3.1116861e-07 1 0
vn 0.91927606 0.39361361 0
vn -0.91927618 0.39361328 0
vn 0.45963761 0.39361423 -0.79611641
vn 0.459638 0.39361408 0.79611611
vn -0.45963812 0.39361376 -0.79611623
vn -0.4596377 0.3936139 0.79611653
vn -0.47928283 -0.2848714 -0.83014232
vn -0.95856583 -0.28487146 -0
vn -0.47928295 -0.2848714 0.83014226
vn 0.47928303 -0.28487137 0.8301422
vn 0.95856583 -0.28487146 0
vn 0.47928295 -0.28487143 -0.83014226
vn 2.335287e-07 1 0
vn 0.48062536 -0.27567917 0.83246636
vn -0.48062506 -0.27567917 -0.8324666
vn -0.48062536 -0.27567917 0.83246636
vn 0.96124977 -0.27567905 0
vn -0.96124977 -0.27567905 -0
vn 0.48062465 -0.27567923 -0.8324669

# Mesh 'Object_0' with 42 faces
g Object_0
usemtl Blue_Pen
f  1/1/1 2/2/1 3/3/1
f  1/1/1 3/3/1 4/4/1
f  5/5/2 6/6/2 2/2/2
f  5/5/2 2/2/2 1/1/2
f  7/7/3 8/8/3 6/6/3
f  7/7/3 6/6/3 5/5/3
f  9/9/4 10/10/4 8/8/4
f  9/9/4 8/8/4 7/7/4
f  11/11/5 12/12/5 10/10/5
f  11/11/5 10/10/5 9/9/5
f  4/13/6 3/14/6 12/12/6
f  4/13/6 12/12/6 11/11/6
f  13/15/7 14/16/7 15/17/7
f  13/15/7 15/17/7 16/18/7
f  14/16/8 13/15/8 17/15/8
f  14/16/8 17/15/8 18/16/8
f  19/19/9 20/20/9 21/21/9
f  19/19/9 21/21/9 22/22/9
f  23/23/10 24/24/10 20/20/10
f  23/23/10 20/20/10 19/19/10
f  25/25/11 26/26/11 24/24/11
f  25/25/11 24/24/11 23/23/11
f  16/27/12 15/28/12 26/26/12
f  16/27/12 26/26/12 25/25/12
f  27/29/13 16/27/13 25/25/13
f  27/29/13 25/25/13 28/30/13
f  28/30/14 25/25/14 23/23/14
f  28/30/14 23/23/14 29/31/14
f  29/31/15 23/23/15 19/19/15
f  29/31/15 19/19/15 30/32/15
f  30/32/16 19/19/16 22/22/16
f  30/32/16 22/22/16 31/33/16
f  31/33/17 22/22/17 13/15/17
f  31/33/17 13/15/17 32/34/17
f  32/34/18 13/15/18 16/18/18
f  32/34/18 16/18/18 27/35/18
f  21/21/19 14/16/19 18/16/19
f  21/21/19 18/16/19 33/21/19
f  13/15/20 22/22/20 34/22/20
f  13/15/20 34/22/20 17/15/20
f  22/22/21 21/21/21 33/21/21
f  22/22/21 33/21/21 34/22/21

# Mesh 'Object_1' with 114 faces
g Object_1
usemtl Metallic
f  15/28/22 35/36/22 36/37/22
f  15/28/22 36/37/22 26/26/22
f  26/26/23 36/37/23 37/38/23
f  26/26/23 37/38/23 24/24/23
f  24/24/24 37/38/24 38/39/24
f  24/24/24 38/39/24 20/20/24
f  20/20/25 38/39/25 39/40/25
f  20/20/25 39/40/25 21/21/25
f  37/38/26 36/37/26 40/37/26
f  37/38/26 40/37/26 41/38/26
f  21/21/27 39/40/27 42/41/27
f  21/21/27 42/41/27 14/16/27
f  14/16/28 42/41/28 35/42/28
f  14/16/28 35/42/28 15/17/28
f  43/43/29 4/13/29 11/11/29
f  43/43/29 11/11/29 44/44/29
f  44/44/30 11/11/30 9/9/30
f  44/44/30 9/9/30 45/45/30
f  45/45/31 9/9/31 7/7/31
f  45/45/31 7/7/31 46/46/31
f  46/46/32 7/7/32 5/5/32
f  46/46/32 5/5/32 47/47/32
f  47/47/33 5/5/33 1/1/33
f  47/47/33 1/1/33 48/48/33
f  48/48/34 1/1/34 4/4/34
f  48/48/34 4/4/34 43/49/34
f  12/12/35 3/14/35 49/14/35
f  12/12/35 49/14/35 50/12/35
f  30/32/36 31/33/36 51/33/36
f  30/32/36 51/33/36 52/32/36
f  2/2/37 6/6/37 53/6/37
f  2/2/37 53/6/37 54/2/37
f  29/31/38 30/32/38 52/32/38
f  29/31/38 52/32/38 55/31/38
f  10/10/39 12/12/39 50/12/39
f  10/10/39 50/12/39 56/10/39
f  32/34/40 27/35/40 57/35/40
f  32/34/40 57/35/40 58/34/40
f  49/14/41 57/29/41 59/30/41
f  49/14/41 59/30/41 50/12/41
f  50/12/42 59/30/42 55/31/42
f  50/12/42 55/31/42 56/10/42
f  56/10/43 55/31/43 52/32/43
f  56/10/43 52/32/43 60/8/43
f  60/8/44 52/32/44 51/33/44
f  60/8/44 51/33/44 53/6/44
f  53/6/45 51/33/45 58/34/45
f  53/6/45 58/34/45 54/2/45
f  54/2/46 58/34/46 57/35/46
f  54/2/46 57/35/46 49/3/46
f  6/6/47 8/8/47 60/8/47
f  6/6/47 60/8/47 53/6/47
f  27/29/48 28/30/48 59/30/48
f  27/29/48 59/30/48 57/29/48
f  31/33/49 32/34/49 58/34/49
f  31/33/49 58/34/49 51/33/49
f  28/30/50 29/31/50 55/31/50
f  28/30/50 55/31/50 59/30/50
f  8/8/51 10/10/51 56/10/51
f  8/8/51 56/10/51 60/8/51
f  3/3/52 2/2/52 54/2/52
f  3/3/52 54/2/52 49/3/52
f  42/41/53 39/40/53 61/40/53
f  42/41/53 61/40/53 62/41/53
f  36/37/54 35/36/54 63/36/54
f  36/37/54 63/36/54 40/37/54
f  38/39/55 37/38/55 41/38/55
f  38/39/55 41/38/55 64/39/55
f  35/42/56 42/41/56 62/41/56
f  35/42/56 62/41/56 63/42/56
f  39/40/57 38/39/57 64/39/57
f  39/40/57 64/39/57 61/40/57
f  65/50/58 66/15/58 67/15/58
f  65/50/58 67/15/58 68/16/58
f  69/22/59 70/21/59 68/16/59
f  69/22/59 68/16/59 67/15/59
f  71/21/60 65/50/60 68/16/60
f  71/21/60 68/16/60 70/21/60
f  66/15/61 72/51/61 73/51/61
f  66/15/61 73/51/61 74/15/61
f  72/51/62 71/21/62 70/21/62
f  72/51/62 70/21/62 69/22/62
f  34/22/63 33/21/63 71/21/63
f  34/22/63 71/21/63 72/51/63
f  17/15/64 34/22/64 72/51/64
f  17/15/64 72/51/64 66/15/64
f  33/21/65 18/16/65 65/50/65
f  33/21/65 65/50/65 71/21/65
f  18/16/66 17/15/66 66/15/66
f  18/16/66 66/15/66 65/50/66
f  73/51/67 75/22/67 76/22/67
f  73/51/67 76/22/67 77/51/67
f  72/51/68 69/22/68 75/22/68
f  72/51/68 75/22/68 73/51/68
f  69/22/69 67/15/69 78/15/69
f  69/22/69 78/15/69 75/22/69
f  67/15/70 66/15/70 74/15/70
f  67/15/70 74/15/70 78/15/70
f  79/15/71 77/51/71 76/22/71
f  79/15/71 76/22/71 80/15/71
f  75/22/72 78/15/72 80/15/72
f  75/22/72 80/15/72 76/22/72
f  74/15/73 73/51/73 77/51/73
f  74/15/73 77/51/73 79/15/73
f  78/15/74 74/15/74 79/15/74
f  78/15/74 79/15/74 80/15/74
f  44/52/75 48/53/75 43/54/75
f  48/53/75 44/52/75 45/55/75
f  48/53/75 45/55/75 47/56/75
f  47/56/75 45/55/75 46/57/75
f  62/58/76 40/59/76 63/60/76
f  40/59/76 62/58/76 61/61/76
f  40/59/76 61/61/76 41/62/76
f  41/62/76 61/61/76 64/63/76

# Mesh 'Object_2' with 128 faces
g Object_2
usemtl Eraser1
f  81/64/77 82/65/77 83/66/77
f  84/67/78 85/68/78 86/69/78
f  87/70/79 88/71/79 89/72/79
f  90/73/80 91/74/80 92/75/80
f  93/76/81 94/77/81 95/78/81
f  93/76/81 95/78/81 96/79/81
f  97/80/82 98/80/82 99/81/82
f  97/80/82 99/81/82 100/81/82
f  101/82/83 102/83/83 103/84/83
f  101/82/83 103/84/83 104/85/83
f  105/86/84 106/87/84 107/88/84
f  105/86/84 107/88/84 108/89/84
f  109/90/85 110/91/85 111/92/85
f  109/90/85 111/92/85 112/93/85
f  113/94/86 114/95/86 115/96/86
f  113/94/86 115/96/86 116/97/86
f  117/98/87 118/99/87 119/100/87
f  117/98/87 119/100/87 120/101/87
f  121/102/88 122/102/88 123/103/88
f  121/102/88 123/103/88 124/103/88
f  120/101/89 125/104/89 81/64/89
f  120/101/89 81/64/89 126/105/89
f  125/104/90 127/106/90 82/107/90
f  125/104/90 82/107/90 81/64/90
f  96/79/91 128/108/91 82/107/91
f  96/79/91 82/107/91 127/106/91
f  128/108/92 129/109/92 83/110/92
f  128/108/92 83/110/92 82/107/92
f  121/102/93 130/111/93 83/110/93
f  121/102/93 83/110/93 129/109/93
f  130/112/94 126/105/94 81/64/94
f  130/112/94 81/64/94 83/66/94
f  103/84/95 131/113/95 84/67/95
f  103/84/95 84/67/95 132/114/95
f  131/113/96 133/115/96 85/116/96
f  131/113/96 85/116/96 84/67/96
f  112/93/97 134/117/97 85/116/97
f  112/93/97 85/116/97 133/115/97
f  134/118/98 135/119/98 86/120/98
f  134/118/98 86/120/98 85/121/98
f  106/87/99 136/122/99 86/120/99
f  106/87/99 86/120/99 135/119/99
f  136/122/100 132/114/100 84/67/100
f  136/122/100 84/67/100 86/120/100
f  100/81/101 137/123/101 87/70/101
f  100/81/101 87/70/101 138/124/101
f  137/123/102 139/125/102 88/126/102
f  137/123/102 88/126/102 87/70/102
f  93/76/103 140/127/103 88/126/103
f  93/76/103 88/126/103 139/125/103
f  140/127/104 141/128/104 89/129/104
f  140/127/104 89/129/104 88/126/104
f  119/100/105 142/130/105 89/129/105
f  119/100/105 89/129/105 141/128/105
f  142/130/106 138/131/106 87/132/106
f  142/130/106 87/132/106 89/129/106
f  115/96/107 143/133/107 90/73/107
f  115/96/107 90/73/107 144/134/107
f  143/133/108 145/135/108 91/74/108
f  143/133/108 91/74/108 90/73/108
f  109/90/109 146/136/109 91/137/109
f  109/90/109 91/137/109 145/138/109
f  146/136/110 147/139/110 92/140/110
f  146/136/110 92/140/110 91/137/110
f  102/83/111 148/141/111 92/140/111
f  102/83/111 92/140/111 147/139/111
f  148/141/112 144/134/112 90/73/112
f  148/141/112 90/73/112 92/140/112
f  110/91/113 109/90/113 145/138/113
f  110/91/113 145/138/113 149/142/113
f  149/143/114 145/135/114 143/133/114
f  149/143/114 143/133/114 150/144/114
f  150/144/115 143/133/115 115/96/115
f  150/144/115 115/96/115 114/95/115
f  94/77/116 93/76/116 139/125/116
f  94/77/116 139/125/116 151/145/116
f  151/145/117 139/125/117 137/123/117
f  151/145/117 137/123/117 152/146/117
f  152/146/118 137/123/118 100/81/118
f  152/146/118 100/81/118 99/81/118
f  120/101/119 119/100/119 141/128/119
f  120/101/119 141/128/119 125/104/119
f  125/104/120 141/128/120 140/127/120
f  125/104/120 140/127/120 127/106/120
f  127/106/121 140/127/121 93/76/121
f  127/106/121 93/76/121 96/79/121
f  109/90/122 112/93/122 133/115/122
f  109/90/122 133/115/122 146/136/122
f  146/136/123 133/115/123 131/113/123
f  146/136/123 131/113/123 147/139/123
f  147/139/124 131/113/124 103/84/124
f  147/139/124 103/84/124 102/83/124
f  122/102/125 121/102/125 129/109/125
f  122/102/125 129/109/125 153/147/125
f  153/147/126 129/109/126 128/108/126
f  153/147/126 128/108/126 154/148/126
f  154/148/127 128/108/127 96/79/127
f  154/148/127 96/79/127 95/78/127
f  117/98/128 120/101/128 126/105/128
f  117/98/128 126/105/128 155/149/128
f  155/149/129 126/105/129 130/112/129
f  155/149/129 130/112/129 156/150/129
f  156/151/130 130/111/130 121/102/130
f  156/151/130 121/102/130 124/103/130
f  112/93/131 111/92/131 157/152/131
f  112/93/131 157/152/131 134/117/131
f  134/118/132 157/153/132 158/154/132
f  134/118/132 158/154/132 135/119/132
f  135/119/133 158/154/133 107/88/133
f  135/119/133 107/88/133 106/87/133
f  119/100/134 118/99/134 159/155/134
f  119/100/134 159/155/134 142/130/134
f  142/130/135 159/155/135 160/156/135
f  142/130/135 160/156/135 138/131/135
f  138/124/136 160/157/136 97/80/136
f  138/124/136 97/80/136 100/81/136
f  102/83/137 101/82/137 161/158/137
f  102/83/137 161/158/137 148/141/137
f  148/141/138 161/158/138 162/159/138
f  148/141/138 162/159/138 144/134/138
f  144/134/139 162/159/139 116/97/139
f  144/134/139 116/97/139 115/96/139
f  106/87/140 105/86/140 163/160/140
f  106/87/140 163/160/140 136/122/140
f  136/122/141 163/160/141 164/161/141
f  136/122/141 164/161/141 132/114/141
f  132/114/142 164/161/142 104/85/142
f  132/114/142 104/85/142 103/84/142

# Mesh 'Object_3' with 126 faces
g Object_3
usemtl Eraser2
f  165/162/143 166/163/143 167/164/143
f  168/165/144 169/166/144 170/167/144
f  171/168/145 172/169/145 173/170/145
f  174/171/146 175/172/146 176/173/146
f  111/92/147 110/91/147 177/174/147
f  111/92/147 177/174/147 178/175/147
f  124/103/88 123/103/88 179/176/88
f  180/177/148 181/178/148 182/179/148
f  180/177/148 182/179/148 183/180/148
f  184/181/149 185/181/149 98/80/149
f  184/181/149 98/80/149 97/80/149
f  108/89/150 107/88/150 186/182/150
f  108/89/150 186/182/150 187/183/150
f  188/184/151 189/185/151 114/95/151
f  188/184/151 114/95/151 113/94/151
f  190/186/152 118/99/152 117/98/152
f  190/186/152 117/98/152 191/187/152
f  192/188/153 193/189/153 165/190/153
f  192/188/153 165/190/153 194/191/153
f  193/192/154 195/193/154 166/163/154
f  193/192/154 166/163/154 165/162/154
f  191/187/155 196/194/155 166/163/155
f  191/187/155 166/163/155 195/193/155
f  196/194/156 197/195/156 167/164/156
f  196/194/156 167/164/156 166/163/156
f  179/176/157 198/196/157 167/197/157
f  179/176/157 167/197/157 197/198/157
f  198/196/158 194/199/158 165/200/158
f  198/196/158 165/200/158 167/197/158
f  186/182/159 199/201/159 168/165/159
f  186/182/159 168/165/159 200/202/159
f  199/201/160 201/203/160 169/166/160
f  199/201/160 169/166/160 168/165/160
f  178/175/161 202/204/161 169/205/161
f  178/175/161 169/205/161 201/206/161
f  202/207/162 203/208/162 170/209/162
f  202/207/162 170/209/162 169/210/162
f  181/178/163 204/211/163 170/209/163
f  181/178/163 170/209/163 203/208/163
f  204/212/164 200/202/164 168/165/164
f  204/212/164 168/165/164 170/167/164
f  190/186/165 205/213/165 171/168/165
f  190/186/165 171/168/165 206/214/165
f  205/213/166 207/215/166 172/169/166
f  205/213/166 172/169/166 171/168/166
f  208/216/167 209/217/167 172/218/167
f  208/216/167 172/218/167 207/219/167
f  209/217/168 210/220/168 173/221/168
f  209/217/168 173/221/168 172/218/168
f  184/181/169 211/222/169 173/221/169
f  184/181/169 173/221/169 210/220/169
f  211/223/170 206/214/170 171/168/170
f  211/223/170 171/168/170 173/170/170
f  182/179/171 212/224/171 174/171/171
f  182/179/171 174/171/171 213/225/171
f  212/224/172 214/226/172 175/172/172
f  212/224/172 175/172/172 174/171/172
f  177/174/173 215/227/173 175/228/173
f  177/174/173 175/228/173 214/229/173
f  215/230/174 216/231/174 176/232/174
f  215/230/174 176/232/174 175/233/174
f  189/185/175 217/234/175 176/232/175
f  189/185/175 176/232/175 216/231/175
f  217/234/176 213/225/176 174/171/176
f  217/234/176 174/171/176 176/232/176
f  190/186/177 191/187/177 195/193/177
f  190/186/177 195/193/177 205/213/177
f  205/213/178 195/193/178 193/192/178
f  205/213/178 193/192/178 207/215/178
f  207/219/179 193/189/179 192/188/179
f  207/219/179 192/188/179 208/216/179
f  187/183/180 186/182/180 200/202/180
f  187/183/180 200/202/180 218/235/180
f  218/235/181 200/202/181 204/212/181
f  218/235/181 204/212/181 219/236/181
f  219/237/182 204/211/182 181/178/182
f  219/237/182 181/178/182 180/177/182
f  178/175/183 177/174/183 214/229/183
f  178/175/183 214/229/183 202/204/183
f  202/207/184 214/226/184 212/224/184
f  202/207/184 212/224/184 203/208/184
f  203/208/185 212/224/185 182/179/185
f  203/208/185 182/179/185 181/178/185
f  185/181/186 184/181/186 210/220/186
f  185/181/186 210/220/186 220/238/186
f  220/238/187 210/220/187 209/217/187
f  220/238/187 209/217/187 221/239/187
f  221/239/188 209/217/188 208/216/188
f  221/239/188 208/216/188 222/240/188
f  118/99/189 190/186/189 206/214/189
f  118/99/189 206/214/189 159/155/189
f  159/155/190 206/214/190 211/223/190
f  159/155/190 211/223/190 160/241/190
f  160/157/191 211/222/191 184/181/191
f  160/157/191 184/181/191 97/80/191
f  111/92/192 178/175/192 201/206/192
f  111/92/192 201/206/192 157/152/192
f  157/153/193 201/203/193 199/201/193
f  157/153/193 199/201/193 158/154/193
f  158/154/194 199/201/194 186/182/194
f  158/154/194 186/182/194 107/88/194
f  191/187/195 117/98/195 155/149/195
f  191/187/195 155/149/195 196/194/195
f  196/194/196 155/149/196 156/150/196
f  196/194/196 156/150/196 197/195/196
f  197/198/197 156/151/197 124/103/197
f  197/198/197 124/103/197 179/176/197
f  177/174/198 110/91/198 149/142/198
f  177/174/198 149/142/198 215/227/198
f  215/230/199 149/143/199 150/144/199
f  215/230/199 150/144/199 216/231/199
f  216/231/200 150/144/200 114/95/200
f  216/231/200 114/95/200 189/185/200
f  179/176/201 223/242/201 198/196/201
f  198/196/202 223/242/202 224/243/202
f  198/196/202 224/243/202 194/199/202
f  194/191/203 224/244/203 225/245/203
f  194/191/203 225/245/203 192/188/203
f  189/185/204 188/184/204 226/246/204
f  189/185/204 226/246/204 217/234/204
f  217/234/205 226/246/205 227/247/205
f  217/234/205 227/247/205 213/225/205
f  213/225/206 227/247/206 183/180/206
f  213/225/206 183/180/206 182/179/206
f  192/188/207 225/245/207 222/240/207
f  192/188/207 222/240/207 208/216/207

# Mesh 'Object_4' with 36 faces
g Object_4
usemtl Eraser3
f  123/103/208 108/89/208 187/183/208
f  123/103/208 187/183/208 179/176/208
f  122/102/88 105/86/88 108/89/88
f  122/102/88 108/89/88 123/103/88
f  225/245/209 180/177/209 183/180/209
f  225/245/209 183/180/209 222/240/209
f  98/80/210 113/94/210 116/97/210
f  98/80/210 116/97/210 99/81/210
f  94/77/211 101/82/211 104/85/211
f  94/77/211 104/85/211 95/78/211
f  185/181/212 188/184/212 113/94/212
f  185/181/212 113/94/212 98/80/212
f  188/184/213 185/181/213 220/238/213
f  188/184/213 220/238/213 226/246/213
f  226/246/214 220/238/214 221/239/214
f  226/246/214 221/239/214 227/247/214
f  227/247/215 221/239/215 222/240/215
f  227/247/215 222/240/215 183/180/215
f  101/82/216 94/77/216 151/145/216
f  101/82/216 151/145/216 161/158/216
f  161/158/217 151/145/217 152/146/217
f  161/158/217 152/146/217 162/159/217
f  162/159/218 152/146/218 99/81/218
f  162/159/218 99/81/218 116/97/218
f  105/86/219 122/102/219 153/147/219
f  105/86/219 153/147/219 163/160/219
f  163/160/220 153/147/220 154/148/220
f  163/160/220 154/148/220 164/161/220
f  164/161/221 154/148/221 95/78/221
f  164/161/221 95/78/221 104/85/221
f  179/176/222 187/183/222 218/235/222
f  179/176/222 218/235/222 223/242/222
f  223/242/223 218/235/223 219/248/223
f  223/242/223 219/248/223 224/249/223
f  224/250/224 219/251/224 180/177/224
f  224/250/224 180/177/224 225/245/224

# Mesh 'Object_5' with 12 faces
g Object_5
usemtl Ruler
f  228/252/149 229/253/149 230/254/149
f  228/252/149 230/254/149 231/255/149
f  232/252/88 233/255/88 234/254/88
f  232/252/88 234/254/88 235/253/88
f  228/252/225 231/255/225 233/255/225
f  228/252/225 233/255/225 232/252/225
f  229/253/147 228/252/147 232/252/147
f  229/253/147 232/252/147 235/253/147
f  230/254/226 229/253/226 235/253/226
f  230/254/226 235/253/226 234/254/226
f  231/255/227 230/254/227 234/254/227
f  231/255/227 234/254/227 233/255/227

# Mesh 'Object_6' with 44 faces
g Object_6
usemtl material
f  236/43/228 237/36/228 238/37/228
f  236/43/228 238/37/228 239/44/228
f  239/44/229 238/37/229 240/38/229
f  239/44/229 240/38/229 241/45/229
f  241/45/230 240/38/230 242/39/230
f  241/45/230 242/39/230 243/46/230
f  243/46/231 242/39/231 244/40/231
f  243/46/231 244/40/231 245/47/231
f  237/42/232 246/41/232 247/41/232
f  237/42/232 247/41/232 248/42/232
f  245/47/233 244/40/233 246/41/233
f  245/47/233 246/41/233 249/48/233
f  249/48/234 246/41/234 237/42/234
f  249/48/234 237/42/234 236/49/234
f  248/42/235 247/41/235 250/41/235
f  248/42/235 250/41/235 251/42/235
f  244/40/232 242/39/232 252/39/232
f  244/40/232 252/39/232 253/40/232
f  240/38/232 238/37/232 254/37/232
f  240/38/232 254/37/232 255/38/232
f  246/41/232 244/40/232 253/40/232
f  246/41/232 253/40/232 247/41/232
f  238/37/232 237/36/232 248/36/232
f  238/37/232 248/36/232 254/37/232
f  242/39/232 240/38/232 255/38/232
f  242/39/232 255/38/232 252/39/232
f  253/40/236 252/39/236 256/39/236
f  253/40/236 256/39/236 257/40/236
f  255/38/233 254/37/233 258/37/233
f  255/38/233 258/37/233 259/38/233
f  247/41/229 253/40/229 257/40/229
f  247/41/229 257/40/229 250/41/229
f  252/39/237 255/38/237 259/38/237
f  252/39/237 259/38/237 256/39/237
f  254/37/238 248/36/238 251/36/238
f  254/37/238 251/36/238 258/37/238
f  239/52/239 249/53/239 236/54/239
f  249/53/239 239/52/239 241/55/239
f  249/53/239 241/55/239 245/56/239
f  245/56/239 241/55/239 243/57/239
f  250/58/240 258/59/240 251/60/240
f  258/59/240 250/58/240 257/61/240
f  258/59/240 257/61/240 259/62/240
f  259/62/240 257/61/240 256/63/240

# Mesh 'Object_7' with 117 faces
g Object_7
usemtl Book
f  260/256/241 261/257/241 262/233/241
f  260/256/241 262/233/241 263/258/241
f  264/259/242 265/260/242 266/260/242
f  264/259/242 266/260/242 267/259/242
f  268/261/243 269/262/243 270/262/243
f  268/261/243 270/262/243 271/261/243
f  268/261/243 272/263/243 273/264/243
f  268/261/243 273/264/243 274/265/243
f  264/259/242 262/266/242 261/267/242
f  264/259/242 261/267/242 275/268/242
f  269/269/244 276/270/244 277/270/244
f  269/269/244 277/270/244 270/269/244
f  278/271/245 279/272/245 280/273/245
f  278/271/245 280/273/245 281/274/245
f  282/275/246 278/271/246 281/274/246
f  282/275/246 281/274/246 276/270/246
f  276/270/247 281/274/247 283/274/247
f  276/270/247 283/274/247 277/270/247
f  263/258/248 262/233/248 284/233/248
f  263/258/248 284/233/248 285/258/248
f  279/272/249 260/256/249 263/258/249
f  279/272/249 263/258/249 280/273/249
f  260/256/250 279/272/250 286/272/250
f  260/256/250 286/272/250 287/256/250
f  261/257/251 260/256/251 287/256/251
f  261/257/251 287/256/251 288/257/251
f  280/273/252 263/258/252 285/258/252
f  280/273/252 285/258/252 289/273/252
f  265/260/242 264/259/242 275/268/242
f  265/260/242 275/268/242 290/276/242
f  269/262/243 268/261/243 274/265/243
f  269/262/243 274/265/243 291/277/243
f  292/278/242 293/279/242 294/279/242
f  292/278/242 294/279/242 295/278/242
f  290/276/242 275/268/242 296/268/242
f  290/276/242 296/268/242 297/276/242
f  279/272/253 278/271/253 298/271/253
f  279/272/253 298/271/253 286/272/253
f  293/279/242 299/280/242 300/280/242
f  293/279/242 300/280/242 294/279/242
f  291/277/243 274/265/243 301/265/243
f  291/277/243 301/265/243 302/277/243
f  275/268/242 261/267/242 288/267/242
f  275/268/242 288/267/242 296/268/242
f  303/281/254 304/282/254 305/282/254
f  303/281/254 305/282/254 306/281/254
f  291/283/255 282/275/255 276/270/255
f  291/283/255 276/270/255 269/269/255
f  307/284/256 267/285/256 266/260/256
f  307/284/256 266/260/256 308/286/256
f  308/286/257 266/260/257 297/276/257
f  308/286/257 297/276/257 309/287/257
f  310/288/258 296/289/258 288/290/258
f  310/288/258 288/290/258 287/291/258
f  306/281/258 305/282/258 286/292/258
f  306/281/258 286/292/258 298/293/258
f  311/294/258 306/281/258 298/293/258
f  311/294/258 298/293/258 312/295/258
f  305/282/258 310/288/258 287/291/258
f  305/282/258 287/291/258 286/292/258
f  289/273/256 285/258/256 307/284/256
f  289/273/256 307/284/256 313/296/256
f  277/270/256 283/274/256 314/297/256
f  277/270/256 314/297/256 295/278/256
f  283/274/256 289/273/256 313/296/256
f  283/274/256 313/296/256 314/297/256
f  309/287/259 297/276/259 296/289/259
f  309/287/259 296/289/259 310/288/259
f  285/258/260 284/233/260 267/285/260
f  285/258/260 267/285/260 307/284/260
f  270/269/261 277/270/261 295/278/261
f  270/269/261 295/278/261 271/298/261
f  315/264/262 300/280/262 311/294/262
f  315/264/262 311/294/262 301/299/262
f  301/299/258 311/294/258 312/295/258
f  301/299/258 312/295/258 302/200/258
f  316/263/257 294/279/257 300/280/257
f  316/263/257 300/280/257 315/264/257
f  271/298/256 295/278/256 294/279/256
f  271/298/256 294/279/256 316/263/256
f  282/275/263 291/283/263 302/283/263
f  282/275/263 302/283/263 312/275/263
f  317/284/264 318/296/264 313/296/264
f  317/284/264 313/296/264 307/284/264
f  319/287/243 320/286/243 308/286/243
f  319/287/243 308/286/243 309/287/243
f  321/294/265 303/281/265 306/281/265
f  321/294/265 306/281/265 311/294/265
f  281/274/266 280/273/266 289/273/266
f  281/274/266 289/273/266 283/274/266
f  304/282/267 322/288/267 310/288/267
f  304/282/267 310/288/267 305/282/267
f  273/264/243 272/263/243 316/263/243
f  273/264/243 316/263/243 315/264/243
f  320/286/243 317/284/243 307/284/243
f  320/286/243 307/284/243 308/286/243
f  323/297/268 292/278/268 295/278/268
f  323/297/268 295/278/268 314/297/268
f  265/260/242 290/276/242 297/276/242
f  265/260/242 297/276/242 266/260/242
f  272/263/243 268/261/243 271/261/243
f  272/263/243 271/261/243 316/263/243
f  299/280/269 321/294/269 311/294/269
f  299/280/269 311/294/269 300/280/269
f  278/271/270 282/275/270 312/275/270
f  278/271/270 312/275/270 298/271/270
f  318/296/271 323/297/271 314/297/271
f  318/296/271 314/297/271 313/296/271
f  274/265/243 273/264/243 315/264/243
f  274/265/243 315/264/243 301/265/243
f  262/266/242 264/259/242 267/259/242
f  262/266/242 267/259/242 284/266/242
f  309/287/243 324/300/243 319/287/243
f  324/300/243 309/287/243 325/301/243
f  325/301/243 309/287/243 326/302/243
f  326/302/243 309/287/243 322/288/243
f  322/288/243 309/287/243 310/288/243

# Mesh 'Object_8' with 29 faces
g Object_8
usemtl BookW
f  327/303/257 328/304/257 329/305/257
f  327/303/257 329/305/257 330/306/257
f  323/297/256 318/296/256 328/304/256
f  323/297/256 328/304/256 327/303/256
f  292/278/256 323/297/256 327/303/256
f  292/278/256 327/303/256 293/279/256
f  293/279/257 327/303/257 330/306/257
f  293/279/257 330/306/257 299/280/257
f  328/304/257 320/286/257 319/287/257
f  328/304/257 319/287/257 329/305/257
f  318/296/256 317/284/256 320/286/256
f  318/296/256 320/286/256 328/304/256
f  299/280/258 330/306/258 303/281/258
f  299/280/258 303/281/258 321/294/258
f  331/307/258 332/308/258 333/309/258
f  331/307/258 333/309/258 334/310/258
f  335/311/258 336/312/258 332/308/258
f  335/311/258 332/308/258 331/307/258
f  336/312/258 319/287/258 324/300/258
f  319/287/258 336/312/258 335/311/258
f  319/287/258 335/311/258 329/305/258
f  330/306/258 304/282/258 303/281/258
f  304/282/258 330/306/258 334/310/258
f  334/310/258 330/306/258 331/307/258
f  331/307/258 330/306/258 335/311/258
f  335/311/258 330/306/258 329/305/258
f  334/310/258 322/288/258 304/282/258
f  322/288/258 334/310/258 333/309/258
f  322/288/258 333/309/258 326/302/258

# Mesh 'Object_9' with 40 faces
g Object_9
usemtl BookR
f  337/301/272 338/308/272 339/312/272
f  337/301/272 339/312/272 340/300/272
f  341/308/273 342/313/273 339/312/273
f  341/308/273 339/312/273 338/308/273
f  343/314/274 344/315/274 345/309/274
f  343/314/274 345/309/274 346/302/274
f  342/313/275 347/300/275 340/300/275
f  342/313/275 340/300/275 339/312/275
f  348/316/276 343/314/276 346/302/276
f  348/316/276 346/302/276 337/301/276
f  347/300/277 348/316/277 337/301/277
f  347/300/277 337/301/277 340/300/277
f  344/315/278 341/308/278 338/308/278
f  344/315/278 338/308/278 345/309/278
f  346/302/279 345/309/279 338/308/279
f  346/302/279 338/308/279 337/301/279
f  333/309/280 332/308/280 349/308/280
f  333/309/280 349/308/280 350/309/280
f  324/300/281 325/301/281 351/301/281
f  324/300/281 351/301/281 352/300/281
f  325/301/282 326/302/282 353/302/282
f  325/301/282 353/302/282 351/301/282
f  336/312/283 324/300/283 352/300/283
f  336/312/283 352/300/283 354/312/283
f  326/302/284 333/309/284 350/309/284
f  326/302/284 350/309/284 353/302/284
f  332/308/285 336/312/285 354/312/285
f  332/308/285 354/312/285 349/308/285
f  350/309/286 349/308/286 341/308/286
f  350/309/286 341/308/286 344/315/286
f  352/300/287 351/301/287 348/316/287
f  352/300/287 348/316/287 347/300/287
f  351/301/288 353/302/288 343/314/288
f  351/301/288 343/314/288 348/316/288
f  354/312/289 352/300/289 347/300/289
f  354/312/289 347/300/289 342/313/289
f  353/302/290 350/309/290 344/315/290
f  353/302/290 344/315/290 343/314/290
f  349/308/291 354/312/291 342/313/291
f  349/308/291 342/313/291 341/308/291

# Mesh 'Object_10' with 24 faces
g Object_10
usemtl Metallic
f  355/317/227 356/318/227 357/318/227
f  355/317/227 357/318/227 358/317/227
f  359/319/227 360/320/227 361/320/227
f  359/319/227 361/320/227 362/319/227
f  363/321/227 355/317/227 358/317/227
f  363/321/227 358/317/227 364/321/227
f  365/322/227 363/321/227 364/321/227
f  365/322/227 364/321/227 366/322/227
f  362/323/292 367/36/292 368/37/292
f  362/323/292 368/37/292 357/318/292
f  357/318/226 368/37/226 369/38/226
f  357/318/226 369/38/226 358/317/226
f  358/317/293 369/38/293 370/39/293
f  358/317/293 370/39/293 364/321/293
f  364/321/294 370/39/294 371/40/294
f  364/321/294 371/40/294 366/322/294
f  366/322/225 371/40/225 372/41/225
f  366/322/225 372/41/225 361/320/225
f  361/320/295 372/41/295 367/42/295
f  361/320/295 367/42/295 362/319/295
f  360/320/227 365/322/227 366/322/227
f  360/320/227 366/322/227 361/320/227
f  356/318/227 359/323/227 362/323/227
f  356/318/227 362/323/227 357/318/227

# Mesh 'Object_11' with 12 faces
g Object_11
usemtl Wood
f  373/43/296 374/324/296 375/325/296
f  373/43/296 375/325/296 376/44/296
f  376/44/297 375/325/297 377/326/297
f  376/44/297 377/326/297 378/45/297
f  378/45/298 377/326/298 379/327/298
f  378/45/298 379/327/298 380/46/298
f  380/46/299 379/327/299 381/328/299
f  380/46/299 381/328/299 382/47/299
f  382/47/300 381/328/300 383/329/300
f  382/47/300 383/329/300 384/48/300
f  384/48/301 383/329/301 374/330/301
f  384/48/301 374/330/301 373/49/301

# Mesh 'Object_12' with 16 faces
g Object_12
usemtl BlackPencilTip
f  382/47/302 384/48/302 385/48/302
f  382/47/302 385/48/302 386/47/302
f  373/43/303 376/44/303 387/44/303
f  373/43/303 387/44/303 388/43/303
f  378/45/304 380/46/304 389/46/304
f  378/45/304 389/46/304 390/45/304
f  384/48/305 373/49/305 388/49/305
f  384/48/305 388/49/305 385/48/305
f  380/46/306 382/47/306 386/47/306
f  380/46/306 386/47/306 389/46/306
f  376/44/307 378/45/307 390/45/307
f  376/44/307 390/45/307 387/44/307
f  387/52/227 385/53/227 388/54/227
f  385/53/227 387/52/227 390/55/227
f  385/53/227 390/55/227 386/56/227
f  386/56/227 390/55/227 389/57/227

# Mesh 'Object_13' with 12 faces
g Object_13
usemtl Pencil
f  383/329/308 360/320/308 359/319/308
f  383/329/308 359/319/308 374/330/308
f  381/328/225 365/322/225 360/320/225
f  381/328/225 360/320/225 383/329/225
f  379/327/309 363/321/309 365/322/309
f  379/327/309 365/322/309 381/328/309
f  377/326/310 355/317/310 363/321/310
f  377/326/310 363/321/310 379/327/310
f  375/325/226 356/318/226 355/317/226
f  375/325/226 355/317/226 377/326/226
f  374/324/311 359/323/311 356/318/311
f  374/324/311 356/318/311 375/325/311

# Mesh 'Object_14' with 16 faces
g Object_14
usemtl Eraser
f  391/61/312 392/58/312 372/58/312
f  391/61/312 372/58/312 371/61/312
f  392/58/313 393/60/313 367/60/313
f  392/58/313 367/60/313 372/58/313
f  394/63/314 391/61/314 371/61/314
f  394/63/314 371/61/314 370/63/314
f  393/60/315 395/59/315 368/59/315
f  393/60/315 368/59/315 367/60/315
f  396/62/316 394/63/316 370/63/316
f  396/62/316 370/63/316 369/62/316
f  395/59/317 396/62/317 369/62/317
f  395/59/317 369/62/317 368/59/317
f  392/58/318 395/59/318 393/60/318
f  395/59/318 392/58/318 391/61/318
f  395/59/318 391/61/318 396/62/318
f  396/62/318 391/61/318 394/63/318

# Mesh 'Object_15' with 28 faces
g Object_15
usemtl Wood
f  397/38/319 398/37/319 399/37/319
f  397/38/319 399/37/319 400/38/319
f  401/41/320 402/40/320 403/40/320
f  401/41/320 403/40/320 404/41/320
f  398/37/321 405/36/321 406/36/321
f  398/37/321 406/36/321 399/37/321
f  407/39/322 397/38/322 400/38/322
f  407/39/322 400/38/322 408/39/322
f  405/42/323 401/41/323 404/41/323
f  405/42/323 404/41/323 406/42/323
f  402/40/324 407/39/324 408/39/324
f  402/40/324 408/39/324 403/40/324
f  409/48/325 410/331/325 411/332/325
f  409/48/325 411/332/325 412/49/325
f  413/47/326 414/333/326 410/331/326
f  413/47/326 410/331/326 409/48/326
f  415/46/327 416/334/327 414/333/327
f  415/46/327 414/333/327 413/47/327
f  417/45/328 418/335/328 416/334/328
f  417/45/328 416/334/328 415/46/328
f  419/44/329 420/336/329 418/335/329
f  419/44/329 418/335/329 417/45/329
f  412/43/330 411/337/330 420/336/330
f  412/43/330 420/336/330 419/44/330
f  404/58/331 399/59/331 406/60/331
f  399/59/331 404/58/331 403/61/331
f  399/59/331 403/61/331 400/62/331
f  400/62/331 403/61/331 408/63/331

# Mesh 'Object_16' with 28 faces
g Object_16
usemtl BluePencil
f  411/337/311 405/36/311 398/37/311
f  411/337/311 398/37/311 420/336/311
f  420/336/226 398/37/226 397/38/226
f  420/336/226 397/38/226 418/335/226
f  418/335/310 397/38/310 407/39/310
f  418/335/310 407/39/310 416/334/310
f  416/334/309 407/39/309 402/40/309
f  416/334/309 402/40/309 414/333/309
f  414/333/225 402/40/225 401/41/225
f  414/333/225 401/41/225 410/331/225
f  410/331/308 401/41/308 405/42/308
f  410/331/308 405/42/308 411/332/308
f  417/45/332 415/46/332 421/46/332
f  417/45/332 421/46/332 422/45/332
f  409/48/333 412/49/333 423/49/333
f  409/48/333 423/49/333 424/48/333
f  415/46/334 413/47/334 425/47/334
f  415/46/334 425/47/334 421/46/334
f  419/44/335 417/45/335 422/45/335
f  419/44/335 422/45/335 426/44/335
f  413/47/336 409/48/336 424/48/336
f  413/47/336 424/48/336 425/47/336
f  412/43/337 419/44/337 426/44/337
f  412/43/337 426/44/337 423/43/337
f  426/52/227 424/53/227 423/54/227
f  424/53/227 426/52/227 422/55/227
f  424/53/227 422/55/227 425/56/227
f  425/56/227 422/55/227 421/57/227

# Mesh 'Object_17' with 32 faces
g Object_17
usemtl Wood
f  427/38/319 428/37/319 429/37/319
f  427/38/319 429/37/319 430/38/319
f  431/41/320 432/40/320 433/40/320
f  431/41/320 433/40/320 434/41/320
f  428/37/321 435/36/321 436/36/321
f  428/37/321 436/36/321 429/37/321
f  437/39/322 427/38/322 430/38/322
f  437/39/322 430/38/322 438/39/322
f  435/42/323 431/41/323 434/41/323
f  435/42/323 434/41/323 436/42/323
f  432/40/324 437/39/324 438/39/324
f  432/40/324 438/39/324 433/40/324
f  439/48/325 440/331/325 441/332/325
f  439/48/325 441/332/325 442/49/325
f  443/47/326 444/333/326 440/331/326
f  443/47/326 440/331/326 439/48/326
f  445/46/327 446/334/327 444/333/327
f  445/46/327 444/333/327 443/47/327
f  447/45/328 448/335/328 446/334/328
f  447/45/328 446/334/328 445/46/328
f  449/44/329 450/336/329 448/335/329
f  449/44/329 448/335/329 447/45/329
f  442/43/330 441/337/330 450/336/330
f  442/43/330 450/336/330 449/44/330
f  434/58/331 429/59/331 436/60/331
f  429/59/331 434/58/331 433/61/331
f  429/59/331 433/61/331 430/62/331
f  430/62/331 433/61/331 438/63/331
f  451/52/227 452/53/227 453/54/227
f  452/53/227 451/52/227 454/55/227
f  452/53/227 454/55/227 455/56/227
f  455/56/227 454/55/227 456/57/227

# Mesh 'Object_18' with 24 faces
g Object_18
usemtl BrownPencil
f  441/337/311 435/36/311 428/37/311
f  441/337/311 428/37/311 450/336/311
f  450/336/226 428/37/226 427/38/226
f  450/336/226 427/38/226 448/335/226
f  448/335/310 427/38/310 437/39/310
f  448/335/310 437/39/310 446/334/310
f  446/334/309 437/39/309 432/40/309
f  446/334/309 432/40/309 444/333/309
f  444/333/225 432/40/225 431/41/225
f  444/333/225 431/41/225 440/331/225
f  440/331/308 431/41/308 435/42/308
f  440/331/308 435/42/308 441/332/308
f  447/45/332 445/46/332 456/46/332
f  447/45/332 456/46/332 454/45/332
f  439/48/333 442/49/333 453/49/333
f  439/48/333 453/49/333 452/48/333
f  445/46/334 443/47/334 455/47/334
f  445/46/334 455/47/334 456/46/334
f  449/44/335 447/45/335 454/45/335
f  449/44/335 454/45/335 451/44/335
f  443/47/336 439/48/336 452/48/336
f  443/47/336 452/48/336 455/47/336
f  442/43/337 449/44/337 451/44/337
f  442/43/337 451/44/337 453/43/337

# Mesh 'Object_19' with 32 faces
g Object_19
usemtl Wood
f  457/38/319 458/37/319 459/37/319
f  457/38/319 459/37/319 460/38/319
f  461/41/320 462/40/320 463/40/320
f  461/41/320 463/40/320 464/41/320
f  458/37/321 465/36/321 466/36/321
f  458/37/321 466/36/321 459/37/321
f  467/39/322 457/38/322 460/38/322
f  467/39/322 460/38/322 468/39/322
f  465/42/323 461/41/323 464/41/323
f  465/42/323 464/41/323 466/42/323
f  462/40/324 467/39/324 468/39/324
f  462/40/324 468/39/324 463/40/324
f  469/48/325 470/331/325 471/332/325
f  469/48/325 471/332/325 472/49/325
f  473/47/326 474/333/326 470/331/326
f  473/47/326 470/331/326 469/48/326
f  475/46/327 476/334/327 474/333/327
f  475/46/327 474/333/327 473/47/327
f  477/45/328 478/335/328 476/334/328
f  477/45/328 476/334/328 475/46/328
f  479/44/329 480/336/329 478/335/329
f  479/44/329 478/335/329 477/45/329
f  472/43/330 471/337/330 480/336/330
f  472/43/330 480/336/330 479/44/330
f  464/58/331 459/59/331 466/60/331
f  459/59/331 464/58/331 463/61/331
f  459/59/331 463/61/331 460/62/331
f  460/62/331 463/61/331 468/63/331
f  481/52/227 482/53/227 483/54/227
f  482/53/227 481/52/227 484/55/227
f  482/53/227 484/55/227 485/56/227
f  485/56/227 484/55/227 486/57/227

# Mesh 'Object_20' with 24 faces
g Object_20
usemtl GreenPencil
f  471/337/311 465/36/311 458/37/311
f  471/337/311 458/37/311 480/336/311
f  480/336/226 458/37/226 457/38/226
f  480/336/226 457/38/226 478/335/226
f  478/335/310 457/38/310 467/39/310
f  478/335/310 467/39/310 476/334/310
f  476/334/309 467/39/309 462/40/309
f  476/334/309 462/40/309 474/333/309
f  474/333/225 462/40/225 461/41/225
f  474/333/225 461/41/225 470/331/225
f  470/331/308 461/41/308 465/42/308
f  470/331/308 465/42/308 471/332/308
f  477/45/332 475/46/332 486/46/332
f  477/45/332 486/46/332 484/45/332
f  469/48/333 472/49/333 483/49/333
f  469/48/333 483/49/333 482/48/333
f  475/46/334 473/47/334 485/47/334
f  475/46/334 485/47/334 486/46/334
f  479/44/335 477/45/335 484/45/335
f  479/44/335 484/45/335 481/44/335
f  473/47/336 469/48/336 482/48/336
f  473/47/336 482/48/336 485/47/336
f  472/43/337 479/44/337 481/44/337
f  472/43/337 481/44/337 483/43/337

# Mesh 'Object_21' with 32 faces
g Object_21
usemtl Wood
f  487/38/319 488/37/319 489/37/319
f  487/38/319 489/37/319 490/38/319
f  491/41/320 492/40/320 493/40/320
f  491/41/320 493/40/320 494/41/320
f  488/37/321 495/36/321 496/36/321
f  488/37/321 496/36/321 489/37/321
f  497/39/322 487/38/322 490/38/322
f  497/39/322 490/38/322 498/39/322
f  495/42/323 491/41/323 494/41/323
f  495/42/323 494/41/323 496/42/323
f  492/40/324 497/39/324 498/39/324
f  492/40/324 498/39/324 493/40/324
f  499/48/325 500/331/325 501/332/325
f  499/48/325 501/332/325 502/49/325
f  503/47/326 504/333/326 500/331/326
f  503/47/326 500/331/326 499/48/326
f  505/46/327 506/334/327 504/333/327
f  505/46/327 504/333/327 503/47/327
f  507/45/328 508/335/328 506/334/328
f  507/45/328 506/334/328 505/46/328
f  509/44/329 510/336/329 508/335/329
f  509/44/329 508/335/329 507/45/329
f  502/43/330 501/337/330 510/336/330
f  502/43/330 510/336/330 509/44/330
f  494/58/331 489/59/331 496/60/331
f  489/59/331 494/58/331 493/61/331
f  489/59/331 493/61/331 490/62/331
f  490/62/331 493/61/331 498/63/331
f  511/52/227 512/53/227 513/54/227
f  512/53/227 511/52/227 514/55/227
f  512/53/227 514/55/227 515/56/227
f  515/56/227 514/55/227 516/57/227

# Mesh 'Object_22' with 24 faces
g Object_22
usemtl LightBluePencil
f  501/337/311 495/36/311 488/37/311
f  501/337/311 488/37/311 510/336/311
f  510/336/226 488/37/226 487/38/226
f  510/336/226 487/38/226 508/335/226
f  508/335/310 487/38/310 497/39/310
f  508/335/310 497/39/310 506/334/310
f  506/334/309 497/39/309 492/40/309
f  506/334/309 492/40/309 504/333/309
f  504/333/225 492/40/225 491/41/225
f  504/333/225 491/41/225 500/331/225
f  500/331/308 491/41/308 495/42/308
f  500/331/308 495/42/308 501/332/308
f  507/45/332 505/46/332 516/46/332
f  507/45/332 516/46/332 514/45/332
f  499/48/333 502/49/333 513/49/333
f  499/48/333 513/49/333 512/48/333
f  505/46/334 503/47/334 515/47/334
f  505/46/334 515/47/334 516/46/334
f  509/44/335 507/45/335 514/45/335
f  509/44/335 514/45/335 511/44/335
f  503/47/336 499/48/336 512/48/336
f  503/47/336 512/48/336 515/47/336
f  502/43/337 509/44/337 511/44/337
f  502/43/337 511/44/337 513/43/337

# Mesh 'Object_23' with 32 faces
g Object_23
usemtl Wood
f  517/38/319 518/37/319 519/37/319
f  517/38/319 519/37/319 520/38/319
f  521/41/320 522/40/320 523/40/320
f  521/41/320 523/40/320 524/41/320
f  518/37/321 525/36/321 526/36/321
f  518/37/321 526/36/321 519/37/321
f  527/39/322 517/38/322 520/38/322
f  527/39/322 520/38/322 528/39/322
f  525/42/323 521/41/323 524/41/323
f  525/42/323 524/41/323 526/42/323
f  522/40/324 527/39/324 528/39/324
f  522/40/324 528/39/324 523/40/324
f  529/48/325 530/331/325 531/332/325
f  529/48/325 531/332/325 532/49/325
f  533/47/326 534/333/326 530/331/326
f  533/47/326 530/331/326 529/48/326
f  535/46/327 536/334/327 534/333/327
f  535/46/327 534/333/327 533/47/327
f  537/45/328 538/335/328 536/334/328
f  537/45/328 536/334/328 535/46/328
f  539/44/329 540/336/329 538/335/329
f  539/44/329 538/335/329 537/45/329
f  532/43/330 531/337/330 540/336/330
f  532/43/330 540/336/330 539/44/330
f  524/58/331 519/59/331 526/60/331
f  519/59/331 524/58/331 523/61/331
f  519/59/331 523/61/331 520/62/331
f  520/62/331 523/61/331 528/63/331
f  541/52/227 542/53/227 543/54/227
f  542/53/227 541/52/227 544/55/227
f  542/53/227 544/55/227 545/56/227
f  545/56/227 544/55/227 546/57/227

# Mesh 'Object_24' with 24 faces
g Object_24
usemtl PinkPencil
f  531/337/311 525/36/311 518/37/311
f  531/337/311 518/37/311 540/336/311
f  540/336/226 518/37/226 517/38/226
f  540/336/226 517/38/226 538/335/226
f  538/335/310 517/38/310 527/39/310
f  538/335/310 527/39/310 536/334/310
f  536/334/309 527/39/309 522/40/309
f  536/334/309 522/40/309 534/333/309
f  534/333/225 522/40/225 521/41/225
f  534/333/225 521/41/225 530/331/225
f  530/331/308 521/41/308 525/42/308
f  530/331/308 525/42/308 531/332/308
f  537/45/332 535/46/332 546/46/332
f  537/45/332 546/46/332 544/45/332
f  529/48/333 532/49/333 543/49/333
f  529/48/333 543/49/333 542/48/333
f  535/46/334 533/47/334 545/47/334
f  535/46/334 545/47/334 546/46/334
f  539/44/335 537/45/335 544/45/335
f  539/44/335 544/45/335 541/44/335
f  533/47/336 529/48/336 542/48/336
f  533/47/336 542/48/336 545/47/336
f  532/43/337 539/44/337 541/44/337
f  532/43/337 541/44/337 543/43/337

# Mesh 'Object_25' with 32 faces
g Object_25
usemtl Wood
f  547/38/319 548/37/319 549/37/319
f  547/38/319 549/37/319 550/38/319
f  551/41/320 552/40/320 553/40/320
f  551/41/320 553/40/320 554/41/320
f  548/37/321 555/36/321 556/36/321
f  548/37/321 556/36/321 549/37/321
f  557/39/322 547/38/322 550/38/322
f  557/39/322 550/38/322 558/39/322
f  555/42/323 551/41/323 554/41/323
f  555/42/323 554/41/323 556/42/323
f  552/40/324 557/39/324 558/39/324
f  552/40/324 558/39/324 553/40/324
f  559/48/325 560/331/325 561/332/325
f  559/48/325 561/332/325 562/49/325
f  563/47/326 564/333/326 560/331/326
f  563/47/326 560/331/326 559/48/326
f  565/46/327 566/334/327 564/333/327
f  565/46/327 564/333/327 563/47/327
f  567/45/328 568/335/328 566/334/328
f  567/45/328 566/334/328 565/46/328
f  569/44/329 570/336/329 568/335/329
f  569/44/329 568/335/329 567/45/329
f  562/43/330 561/337/330 570/336/330
f  562/43/330 570/336/330 569/44/330
f  554/58/331 549/59/331 556/60/331
f  549/59/331 554/58/331 553/61/331
f  549/59/331 553/61/331 550/62/331
f  550/62/331 553/61/331 558/63/331
f  571/52/227 572/53/227 573/54/227
f  572/53/227 571/52/227 574/55/227
f  572/53/227 574/55/227 575/56/227
f  575/56/227 574/55/227 576/57/227

# Mesh 'Object_26' with 24 faces
g Object_26
usemtl PurplePencil
f  561/337/311 555/36/311 548/37/311
f  561/337/311 548/37/311 570/336/311
f  570/336/226 548/37/226 547/38/226
f  570/336/226 547/38/226 568/335/226
f  568/335/310 547/38/310 557/39/310
f  568/335/310 557/39/310 566/334/310
f  566/334/309 557/39/309 552/40/309
f  566/334/309 552/40/309 564/333/309
f  564/333/225 552/40/225 551/41/225
f  564/333/225 551/41/225 560/331/225
f  560/331/308 551/41/308 555/42/308
f  560/331/308 555/42/308 561/332/308
f  567/45/332 565/46/332 576/46/332
f  567/45/332 576/46/332 574/45/332
f  559/48/333 562/49/333 573/49/333
f  559/48/333 573/49/333 572/48/333
f  565/46/334 563/47/334 575/47/334
f  565/46/334 575/47/334 576/46/334
f  569/44/335 567/45/335 574/45/335
f  569/44/335 574/45/335 571/44/335
f  563/47/336 559/48/336 572/48/336
f  563/47/336 572/48/336 575/47/336
f  562/43/337 569/44/337 571/44/337
f  562/43/337 571/44/337 573/43/337

# Mesh 'Object_27' with 28 faces
g Object_27
usemtl Wood
f  577/38/319 578/37/319 579/37/319
f  577/38/319 579/37/319 580/38/319
f  581/41/320 582/40/320 583/40/320
f  581/41/320 583/40/320 584/41/320
f  578/37/321 585/36/321 586/36/321
f  578/37/321 586/36/321 579/37/321
f  587/39/322 577/38/322 580/38/322
f  587/39/322 580/38/322 588/39/322
f  585/42/323 581/41/323 584/41/323
f  585/42/323 584/41/323 586/42/323
f  582/40/324 587/39/324 588/39/324
f  582/40/324 588/39/324 583/40/324
f  589/48/325 590/331/325 591/332/325
f  589/48/325 591/332/325 592/49/325
f  593/47/326 594/333/326 590/331/326
f  593/47/326 590/331/326 589/48/326
f  595/46/327 596/334/327 594/333/327
f  595/46/327 594/333/327 593/47/327
f  597/45/328 598/335/328 596/334/328
f  597/45/328 596/334/328 595/46/328
f  599/44/329 600/336/329 598/335/329
f  599/44/329 598/335/329 597/45/329
f  592/43/330 591/337/330 600/336/330
f  592/43/330 600/336/330 599/44/330
f  584/58/331 579/59/331 586/60/331
f  579/59/331 584/58/331 583/61/331
f  579/59/331 583/61/331 580/62/331
f  580/62/331 583/61/331 588/63/331

# Mesh 'Object_28' with 28 faces
g Object_28
usemtl RedPencil
f  591/337/311 585/36/311 578/37/311
f  591/337/311 578/37/311 600/336/311
f  600/336/226 578/37/226 577/38/226
f  600/336/226 577/38/226 598/335/226
f  598/335/310 577/38/310 587/39/310
f  598/335/310 587/39/310 596/334/310
f  596/334/309 587/39/309 582/40/309
f  596/334/309 582/40/309 594/333/309
f  594/333/225 582/40/225 581/41/225
f  594/333/225 581/41/225 590/331/225
f  590/331/308 581/41/308 585/42/308
f  590/331/308 585/42/308 591/332/308
f  597/45/332 595/46/332 601/46/332
f  597/45/332 601/46/332 602/45/332
f  589/48/333 592/49/333 603/49/333
f  589/48/333 603/49/333 604/48/333
f  595/46/334 593/47/334 605/47/334
f  595/46/334 605/47/334 601/46/334
f  599/44/335 597/45/335 602/45/335
f  599/44/335 602/45/335 606/44/335
f  593/47/336 589/48/336 604/48/336
f  593/47/336 604/48/336 605/47/336
f  592/43/337 599/44/337 606/44/337
f  592/43/337 606/44/337 603/43/337
f  606/52/227 604/53/227 603/54/227
f  604/53/227 606/52/227 602/55/227
f  604/53/227 602/55/227 605/56/227
f  605/56/227 602/55/227 601/57/227

# Mesh 'Object_29' with 32 faces
g Object_29
usemtl Wood
f  607/38/319 608/37/319 609/37/319
f  607/38/319 609/37/319 610/38/319
f  611/41/320 612/40/320 613/40/320
f  611/41/320 613/40/320 614/41/320
f  608/37/321 615/36/321 616/36/321
f  608/37/321 616/36/321 609/37/321
f  617/39/322 607/38/322 610/38/322
f  617/39/322 610/38/322 618/39/322
f  615/42/323 611/41/323 614/41/323
f  615/42/323 614/41/323 616/42/323
f  612/40/324 617/39/324 618/39/324
f  612/40/324 618/39/324 613/40/324
f  619/48/325 620/331/325 621/332/325
f  619/48/325 621/332/325 622/49/325
f  623/47/326 624/333/326 620/331/326
f  623/47/326 620/331/326 619/48/326
f  625/46/327 626/334/327 624/333/327
f  625/46/327 624/333/327 623/47/327
f  627/45/328 628/335/328 626/334/328
f  627/45/328 626/334/328 625/46/328
f  629/44/329 630/336/329 628/335/329
f  629/44/329 628/335/329 627/45/329
f  622/43/330 621/337/330 630/336/330
f  622/43/330 630/336/330 629/44/330
f  614/58/331 609/59/331 616/60/331
f  609/59/331 614/58/331 613/61/331
f  609/59/331 613/61/331 610/62/331
f  610/62/331 613/61/331 618/63/331
f  631/52/227 632/53/227 633/54/227
f  632/53/227 631/52/227 634/55/227
f  632/53/227 634/55/227 635/56/227
f  635/56/227 634/55/227 636/57/227

# Mesh 'Object_30' with 24 faces
g Object_30
usemtl WhitePencil
f  621/337/311 615/36/311 608/37/311
f  621/337/311 608/37/311 630/336/311
f  630/336/226 608/37/226 607/38/226
f  630/336/226 607/38/226 628/335/226
f  628/335/310 607/38/310 617/39/310
f  628/335/310 617/39/310 626/334/310
f  626/334/309 617/39/309 612/40/309
f  626/334/309 612/40/309 624/333/309
f  624/333/225 612/40/225 611/41/225
f  624/333/225 611/41/225 620/331/225
f  620/331/308 611/41/308 615/42/308
f  620/331/308 615/42/308 621/332/308
f  627/45/332 625/46/332 636/46/332
f  627/45/332 636/46/332 634/45/332
f  619/48/333 622/49/333 633/49/333
f  619/48/333 633/49/333 632/48/333
f  625/46/334 623/47/334 635/47/334
f  625/46/334 635/47/334 636/46/334
f  629/44/335 627/45/335 634/45/335
f  629/44/335 634/45/335 631/44/335
f  623/47/336 619/48/336 632/48/336
f  623/47/336 632/48/336 635/47/336
f  622/43/337 629/44/337 631/44/337
f  622/43/337 631/44/337 633/43/337

# Mesh 'Object_31' with 28 faces
g Object_31
usemtl Wood
f  637/38/319 638/37/319 639/37/319
f  637/38/319 639/37/319 640/38/319
f  641/41/320 642/40/320 643/40/320
f  641/41/320 643/40/320 644/41/320
f  638/37/321 645/36/321 646/36/321
f  638/37/321 646/36/321 639/37/321
f  647/39/322 637/38/322 640/38/322
f  647/39/322 640/38/322 648/39/322
f  645/42/323 641/41/323 644/41/323
f  645/42/323 644/41/323 646/42/323
f  642/40/324 647/39/324 648/39/324
f  642/40/324 648/39/324 643/40/324
f  649/48/325 650/331/325 651/332/325
f  649/48/325 651/332/325 652/49/325
f  653/47/326 654/333/326 650/331/326
f  653/47/326 650/331/326 649/48/326
f  655/46/327 656/334/327 654/333/327
f  655/46/327 654/333/327 653/47/327
f  657/45/328 658/335/328 656/334/328
f  657/45/328 656/334/328 655/46/328
f  659/44/329 660/336/329 658/335/329
f  659/44/329 658/335/329 657/45/329
f  652/43/330 651/337/330 660/336/330
f  652/43/330 660/336/330 659/44/330
f  644/58/331 639/59/331 646/60/331
f  639/59/331 644/58/331 643/61/331
f  639/59/331 643/61/331 640/62/331
f  640/62/331 643/61/331 648/63/331

# Mesh 'Object_32' with 28 faces
g Object_32
usemtl YellowPencil
f  651/337/311 645/36/311 638/37/311
f  651/337/311 638/37/311 660/336/311
f  660/336/226 638/37/226 637/38/226
f  660/336/226 637/38/226 658/335/226
f  658/335/310 637/38/310 647/39/310
f  658/335/310 647/39/310 656/334/310
f  656/334/309 647/39/309 642/40/309
f  656/334/309 642/40/309 654/333/309
f  654/333/225 642/40/225 641/41/225
f  654/333/225 641/41/225 650/331/225
f  650/331/308 641/41/308 645/42/308
f  650/331/308 645/42/308 651/332/308
f  657/45/332 655/46/332 661/46/332
f  657/45/332 661/46/332 662/45/332
f  649/48/333 652/49/333 663/49/333
f  649/48/333 663/49/333 664/48/333
f  655/46/334 653/47/334 665/47/334
f  655/46/334 665/47/334 661/46/334
f  659/44/335 657/45/335 662/45/335
f  659/44/335 662/45/335 666/44/335
f  653/47/336 649/48/336 664/48/336
f  653/47/336 664/48/336 665/47/336
f  652/43/337 659/44/337 666/44/337
f  652/43/337 666/44/337 663/43/337
f  666/52/227 664/53/227 663/54/227
f  664/53/227 666/52/227 662/55/227
f  664/53/227 662/55/227 665/56/227
f  665/56/227 662/55/227 661/57/227

